<?xml version="1.0" encoding="UTF-8"?>
<svg xmlns="http://www.w3.org/2000/svg" xmlns:xlink="http://www.w3.org/1999/xlink" width="375pt" height="374.999991pt" viewBox="0 0 375 374.999991" version="1.2">
<defs>
<clipPath id="clip1">
  <path d="M 114.453125 84.234375 L 301.664062 84.234375 L 301.664062 273.984375 L 114.453125 273.984375 Z M 114.453125 84.234375 "/>
</clipPath>
<clipPath id="clip2">
  <path d="M 33 105.820312 L 345.359375 105.820312 L 345.359375 238.597656 L 33 238.597656 Z M 33 105.820312 "/>
</clipPath>
<clipPath id="clip3">
  <path d="M 29.355469 96.007812 L 345.359375 96.007812 L 345.359375 258.875 L 29.355469 258.875 Z M 29.355469 96.007812 "/>
</clipPath>
</defs>
<g id="surface1">
<path style=" stroke:none;fill-rule:nonzero;fill:rgb(13.729858%,56.079102%,23.919678%);fill-opacity:1;" d="M 54.230469 171.40625 C 54.230469 168.703125 56.425781 166.507812 59.132812 166.507812 C 61.839844 166.507812 65.941406 169.386719 65.941406 172.09375 C 65.941406 174.796875 61.839844 177.675781 59.132812 177.675781 C 56.425781 177.675781 54.230469 174.113281 54.230469 171.40625 Z M 244.53125 216.601562 C 244.519531 221.78125 244.363281 226.957031 244.074219 232.128906 C 241.605469 232.054688 239.125 231.980469 236.644531 231.90625 C 239.117188 210.53125 238.429688 187.167969 219.054688 173.730469 C 210.082031 167.511719 198.855469 166.671875 189.023438 171.363281 C 178.28125 176.492188 171.226562 186.753906 167.433594 197.730469 C 163.765625 208.335938 162.410156 219.90625 161.75 231.3125 C 157.933594 231.449219 153.886719 231.59375 149.738281 231.742188 C 150.714844 206.09375 156.03125 177.769531 179.875 163.804688 C 191.921875 156.753906 205.125 157.023438 217.738281 162.582031 C 229.945312 167.960938 239.671875 177.160156 242.710938 190.460938 C 244.648438 198.941406 244.550781 207.949219 244.53125 216.601562 "/>
<path style=" stroke:none;fill-rule:nonzero;fill:rgb(41.178894%,18.818665%,41.569519%);fill-opacity:1;" d="M 326.207031 180.394531 C 326.207031 178.21875 330.035156 175.960938 332.210938 175.960938 C 334.390625 175.960938 336.15625 177.726562 336.15625 179.902344 C 336.15625 182.078125 334.390625 185.074219 332.210938 185.074219 C 330.035156 185.074219 326.207031 182.574219 326.207031 180.394531 Z M 89.421875 262.390625 C 89.421875 259.683594 91.613281 257.492188 94.320312 257.492188 C 97.03125 257.492188 100.210938 259.683594 100.210938 262.390625 C 100.210938 265.09375 97.371094 268.15625 94.664062 268.15625 C 91.957031 268.15625 89.421875 265.09375 89.421875 262.390625 Z M 265.890625 200.855469 C 264.042969 201.726562 262.449219 203.027344 261.160156 204.738281 C 255.847656 211.804688 257.121094 224.429688 258.71875 232.574219 C 255.910156 232.488281 253.054688 232.402344 250.160156 232.3125 C 250.453125 227.082031 250.617188 221.847656 250.628906 216.601562 C 250.644531 208.132812 250.597656 199.492188 249.058594 191.136719 C 246.382812 176.621094 237.011719 165.566406 224.046875 158.867188 C 210.804688 152.027344 196.035156 149.820312 182.105469 155.867188 C 169.5 161.339844 159.394531 171.980469 153.425781 184.234375 C 146.191406 199.074219 144.164062 215.613281 143.621094 231.960938 C 141.039062 232.050781 138.453125 232.140625 135.871094 232.226562 C 137.78125 222.871094 139.722656 207.03125 133.460938 198.535156 C 134.246094 192.34375 135.429688 186.214844 137.535156 180.347656 C 143.371094 164.085938 156.507812 150.769531 172.191406 143.75 C 189.882812 135.828125 210.824219 135.996094 228.777344 142.984375 C 238.109375 146.613281 245.863281 152.351562 251.378906 160.761719 C 256.480469 168.539062 260.3125 177.109375 262.871094 186.046875 C 264.265625 190.914062 265.269531 195.863281 265.890625 200.855469 "/>
<g clip-path="url(#clip1)" clip-rule="nonzero">
<path style=" stroke:none;fill-rule:nonzero;fill:rgb(98.429871%,79.219055%,24.708557%);fill-opacity:1;" d="M 135.5625 89.132812 C 135.5625 86.429688 137.753906 84.238281 140.460938 84.238281 C 143.171875 84.238281 147.269531 87.113281 147.269531 89.820312 C 147.269531 92.527344 143.171875 95.402344 140.460938 95.402344 C 137.753906 95.402344 135.5625 91.839844 135.5625 89.132812 Z M 289.757812 267.722656 C 289.757812 265.019531 291.949219 262.824219 294.660156 262.824219 C 297.363281 262.824219 301.460938 265.703125 301.460938 268.410156 C 301.460938 271.113281 297.363281 273.992188 294.660156 273.992188 C 291.949219 273.992188 289.757812 270.425781 289.757812 267.722656 Z M 285.300781 197.664062 C 284.6875 199.65625 284.1875 201.652344 283.785156 203.539062 C 281.054688 201.578125 278.042969 200.34375 275.367188 199.878906 C 274.191406 199.671875 273.042969 199.570312 271.960938 199.570312 C 271.929688 199.570312 271.898438 199.570312 271.867188 199.570312 C 271.4375 196.273438 270.859375 192.996094 270.117188 189.75 C 265.820312 170.949219 256.367188 150.605469 238.8125 140.96875 C 203.394531 121.519531 155.03125 133.484375 135.6875 169.632812 C 131.570312 177.316406 129.394531 185.566406 128.046875 194.03125 C 126.007812 193.070312 123.695312 192.574219 121.160156 192.574219 C 119.914062 192.574219 118.59375 192.691406 117.238281 192.929688 C 116.394531 193.078125 115.519531 193.296875 114.621094 193.582031 C 115.355469 188.585938 116.328125 183.621094 117.625 178.71875 C 120.453125 168.050781 124.832031 157.730469 131.269531 148.722656 C 138.167969 139.078125 147.835938 132.558594 158.296875 127.273438 C 168.894531 121.914062 180.464844 117.953125 192.363281 117.007812 C 203.960938 116.085938 215.523438 117.964844 226.558594 121.519531 C 237.390625 125.007812 248.152344 129.9375 257.65625 136.230469 C 267.765625 142.921875 274.035156 152.890625 278.28125 164.070312 C 282.414062 174.949219 284.460938 186.230469 285.300781 197.664062 "/>
</g>
<g clip-path="url(#clip2)" clip-rule="nonzero">
<path style=" stroke:none;fill-rule:nonzero;fill:rgb(18.818665%,25.878906%,51.759338%);fill-opacity:1;" d="M 118.050781 197.597656 C 113.21875 198.4375 106.660156 202.175781 103.222656 210.4375 C 103.222656 210.4375 110.9375 164.015625 83.6875 177.515625 C 83.6875 177.515625 63.6875 187.390625 64.015625 210.765625 C 64.015625 210.765625 25.632812 197.597656 34.277344 238.09375 L 129.582031 238.09375 C 129.582031 238.09375 142.535156 193.335938 118.050781 197.597656 Z M 319.542969 215.507812 C 320.308594 201.59375 316.574219 191.65625 310.5 187.488281 C 289.625 173.164062 286.898438 215.234375 286.898438 215.234375 C 284.828125 208.722656 278.574219 205.242188 274.554688 204.542969 C 254.167969 200.996094 264.953125 238.261719 264.953125 238.261719 L 344.300781 238.261719 C 351.503906 204.542969 319.542969 215.507812 319.542969 215.507812 Z M 255.675781 230.464844 C 255.308594 230.457031 255.011719 230.730469 254.996094 231.09375 C 254.972656 231.636719 254.949219 232.179688 254.925781 232.722656 C 254.90625 233.082031 255.1875 233.390625 255.550781 233.40625 C 255.558594 233.40625 255.570312 233.40625 255.582031 233.40625 C 255.929688 233.40625 256.21875 233.132812 256.230469 232.785156 C 256.257812 232.238281 256.28125 231.691406 256.304688 231.144531 C 256.320312 230.785156 256.039062 230.480469 255.675781 230.464844 Z M 159.121094 167.300781 C 158.40625 168.101562 157.699219 168.933594 157.019531 169.773438 C 156.792969 170.058594 156.835938 170.46875 157.117188 170.695312 C 157.238281 170.792969 157.382812 170.839844 157.527344 170.839844 C 157.71875 170.839844 157.910156 170.757812 158.039062 170.597656 C 158.703125 169.773438 159.398438 168.957031 160.097656 168.171875 C 160.339844 167.898438 160.316406 167.484375 160.042969 167.246094 C 159.777344 167.003906 159.359375 167.03125 159.121094 167.300781 Z M 242.484375 166.515625 C 242.234375 166.25 241.820312 166.238281 241.558594 166.488281 C 241.292969 166.734375 241.28125 167.144531 241.527344 167.410156 C 242.253906 168.183594 242.957031 168.984375 243.625 169.792969 C 243.75 169.949219 243.941406 170.03125 244.128906 170.03125 C 244.277344 170.03125 244.425781 169.980469 244.542969 169.882812 C 244.824219 169.652344 244.863281 169.242188 244.632812 168.960938 C 243.949219 168.132812 243.226562 167.308594 242.484375 166.515625 Z M 166.105469 160.519531 C 165.28125 161.210938 164.460938 161.933594 163.667969 162.664062 C 163.402344 162.910156 163.386719 163.324219 163.632812 163.589844 C 163.757812 163.726562 163.9375 163.796875 164.113281 163.796875 C 164.269531 163.796875 164.429688 163.742188 164.554688 163.625 C 165.332031 162.90625 166.136719 162.203125 166.949219 161.523438 C 167.222656 161.292969 167.261719 160.878906 167.03125 160.601562 C 166.796875 160.328125 166.386719 160.289062 166.105469 160.519531 Z M 235.179688 160.046875 C 234.890625 159.832031 234.484375 159.894531 234.265625 160.183594 C 234.050781 160.472656 234.113281 160.886719 234.402344 161.101562 C 235.257812 161.730469 236.097656 162.386719 236.902344 163.058594 C 237.027344 163.164062 237.175781 163.210938 237.324219 163.210938 C 237.511719 163.210938 237.695312 163.132812 237.828125 162.976562 C 238.058594 162.699219 238.019531 162.285156 237.742188 162.054688 C 236.917969 161.367188 236.054688 160.691406 235.179688 160.046875 Z M 142.660156 201.25 C 142.308594 201.160156 141.953125 201.375 141.867188 201.726562 C 141.609375 202.753906 141.363281 203.816406 141.132812 204.875 C 141.054688 205.226562 141.277344 205.578125 141.632812 205.65625 C 141.679688 205.664062 141.726562 205.671875 141.773438 205.671875 C 142.074219 205.671875 142.34375 205.460938 142.410156 205.152344 C 142.640625 204.105469 142.882812 203.058594 143.136719 202.042969 C 143.222656 201.691406 143.011719 201.335938 142.660156 201.25 Z M 171.128906 157.53125 C 171.257812 157.71875 171.464844 157.820312 171.671875 157.820312 C 171.796875 157.820312 171.925781 157.785156 172.035156 157.710938 C 172.917969 157.121094 173.824219 156.550781 174.726562 156.011719 C 175.039062 155.828125 175.140625 155.429688 174.957031 155.117188 C 174.773438 154.808594 174.371094 154.703125 174.058594 154.890625 C 173.136719 155.4375 172.210938 156.019531 171.308594 156.625 C 171.007812 156.824219 170.929688 157.230469 171.128906 157.53125 Z M 153.179688 175.007812 C 152.585938 175.902344 152.003906 176.824219 151.445312 177.75 C 151.261719 178.0625 151.359375 178.460938 151.667969 178.648438 C 151.773438 178.710938 151.890625 178.738281 152.003906 178.738281 C 152.230469 178.738281 152.445312 178.628906 152.566406 178.421875 C 153.113281 177.515625 153.6875 176.609375 154.269531 175.734375 C 154.46875 175.429688 154.386719 175.023438 154.089844 174.824219 C 153.785156 174.625 153.378906 174.707031 153.179688 175.007812 Z M 145.480469 192.03125 C 145.140625 191.910156 144.765625 192.085938 144.644531 192.429688 C 144.289062 193.429688 143.945312 194.464844 143.621094 195.5 C 143.511719 195.84375 143.703125 196.210938 144.046875 196.320312 C 144.113281 196.339844 144.179688 196.347656 144.246094 196.347656 C 144.519531 196.347656 144.777344 196.171875 144.867188 195.890625 C 145.191406 194.871094 145.53125 193.851562 145.878906 192.863281 C 146 192.523438 145.820312 192.152344 145.480469 192.03125 Z M 139.363281 220.238281 C 139.003906 220.199219 138.679688 220.464844 138.644531 220.820312 C 138.535156 221.890625 138.4375 222.960938 138.347656 224.035156 C 138.316406 224.394531 138.582031 224.710938 138.945312 224.742188 C 138.964844 224.742188 138.980469 224.742188 139 224.742188 C 139.335938 224.742188 139.625 224.484375 139.652344 224.144531 C 139.742188 223.078125 139.839844 222.015625 139.945312 220.953125 C 139.984375 220.597656 139.722656 220.273438 139.363281 220.238281 Z M 140.667969 210.683594 C 140.316406 210.625 139.972656 210.863281 139.914062 211.222656 C 139.738281 212.28125 139.574219 213.347656 139.421875 214.414062 C 139.375 214.769531 139.621094 215.101562 139.980469 215.15625 C 140.011719 215.15625 140.039062 215.160156 140.070312 215.160156 C 140.394531 215.160156 140.671875 214.925781 140.71875 214.601562 C 140.871094 213.542969 141.03125 212.488281 141.207031 211.4375 C 141.265625 211.078125 141.023438 210.742188 140.667969 210.683594 Z M 189.25 150.125 C 189.296875 150.125 189.339844 150.117188 189.390625 150.109375 C 190.414062 149.882812 191.464844 149.691406 192.511719 149.539062 C 192.867188 149.488281 193.117188 149.152344 193.0625 148.796875 C 193.007812 148.441406 192.675781 148.191406 192.316406 148.246094 C 191.242188 148.40625 190.164062 148.601562 189.109375 148.832031 C 188.757812 148.910156 188.535156 149.257812 188.609375 149.609375 C 188.675781 149.917969 188.949219 150.125 189.25 150.125 Z M 255.710938 206.027344 C 255.722656 206.027344 255.730469 206.023438 255.742188 206.023438 C 256.101562 206.011719 256.382812 205.707031 256.363281 205.34375 C 256.316406 204.265625 256.257812 203.191406 256.1875 202.117188 C 256.160156 201.757812 255.855469 201.480469 255.488281 201.511719 C 255.128906 201.535156 254.855469 201.847656 254.878906 202.207031 C 254.949219 203.269531 255.011719 204.335938 255.058594 205.402344 C 255.074219 205.75 255.363281 206.027344 255.710938 206.027344 Z M 226.296875 156.085938 L 226.40625 156.144531 C 227.308594 156.609375 228.210938 157.105469 229.085938 157.613281 C 229.191406 157.671875 229.300781 157.699219 229.414062 157.699219 C 229.640625 157.699219 229.859375 157.585938 229.980469 157.375 C 230.160156 157.0625 230.054688 156.664062 229.746094 156.480469 C 228.851562 155.960938 227.929688 155.457031 227.007812 154.980469 L 226.890625 154.917969 C 226.570312 154.757812 226.175781 154.882812 226.011719 155.207031 C 225.84375 155.523438 225.972656 155.921875 226.296875 156.085938 Z M 255.890625 211.144531 C 255.882812 211.144531 255.882812 211.144531 255.878906 211.144531 C 255.519531 211.152344 255.230469 211.445312 255.234375 211.808594 C 255.246094 212.878906 255.253906 213.949219 255.257812 215.015625 C 255.261719 215.375 255.550781 215.667969 255.914062 215.667969 C 256.277344 215.667969 256.570312 215.375 256.566406 215.011719 C 256.566406 213.941406 256.558594 212.863281 256.542969 211.792969 C 256.539062 211.433594 256.246094 211.144531 255.890625 211.144531 Z M 255.90625 220.789062 C 255.90625 220.789062 255.902344 220.789062 255.898438 220.789062 C 255.542969 220.789062 255.246094 221.078125 255.246094 221.4375 C 255.234375 222.507812 255.21875 223.574219 255.195312 224.644531 C 255.1875 225.007812 255.476562 225.304688 255.835938 225.3125 C 255.839844 225.3125 255.847656 225.3125 255.851562 225.3125 C 256.207031 225.3125 256.496094 225.03125 256.503906 224.671875 C 256.527344 223.597656 256.542969 222.527344 256.554688 221.449219 C 256.558594 221.089844 256.269531 220.792969 255.90625 220.789062 Z M 217.527344 152.292969 C 218.511719 152.636719 219.511719 153.015625 220.503906 153.421875 C 220.585938 153.453125 220.667969 153.46875 220.75 153.46875 C 221.007812 153.46875 221.253906 153.3125 221.359375 153.058594 C 221.492188 152.726562 221.332031 152.34375 220.996094 152.207031 C 219.984375 151.796875 218.964844 151.410156 217.960938 151.058594 C 217.617188 150.9375 217.246094 151.117188 217.125 151.457031 C 217.003906 151.800781 217.183594 152.171875 217.527344 152.292969 Z M 198.824219 149.046875 C 198.824219 149.046875 198.828125 149.046875 198.832031 149.046875 L 199.34375 149.042969 C 200.226562 149.042969 201.121094 149.066406 202.003906 149.113281 C 202.015625 149.117188 202.027344 149.117188 202.039062 149.117188 C 202.386719 149.117188 202.671875 148.847656 202.691406 148.5 C 202.710938 148.136719 202.4375 147.828125 202.074219 147.808594 C 201.167969 147.761719 200.25 147.734375 199.34375 147.734375 L 198.816406 147.738281 C 198.453125 147.742188 198.164062 148.039062 198.167969 148.398438 C 198.171875 148.757812 198.464844 149.046875 198.824219 149.046875 Z M 208.539062 148.5625 C 208.183594 148.496094 207.84375 148.738281 207.78125 149.089844 C 207.71875 149.445312 207.953125 149.785156 208.3125 149.851562 C 209.335938 150.035156 210.386719 150.25 211.421875 150.496094 C 211.476562 150.511719 211.527344 150.515625 211.574219 150.515625 C 211.871094 150.515625 212.140625 150.3125 212.210938 150.011719 C 212.296875 149.660156 212.078125 149.308594 211.726562 149.226562 C 210.664062 148.972656 209.59375 148.75 208.539062 148.5625 Z M 252.695312 183.03125 C 252.574219 182.691406 252.199219 182.515625 251.855469 182.640625 C 251.515625 182.761719 251.34375 183.136719 251.464844 183.476562 C 251.824219 184.460938 252.152344 185.472656 252.449219 186.488281 C 252.53125 186.777344 252.792969 186.960938 253.078125 186.960938 C 253.136719 186.960938 253.199219 186.953125 253.261719 186.9375 C 253.609375 186.835938 253.808594 186.472656 253.707031 186.125 C 253.402344 185.082031 253.0625 184.039062 252.695312 183.03125 Z M 248.429688 174.25 C 248.242188 173.945312 247.835938 173.851562 247.53125 174.039062 C 247.222656 174.230469 247.125 174.632812 247.320312 174.941406 C 247.875 175.835938 248.402344 176.761719 248.894531 177.6875 C 249.015625 177.910156 249.238281 178.039062 249.472656 178.039062 C 249.578125 178.039062 249.683594 178.011719 249.78125 177.960938 C 250.101562 177.792969 250.222656 177.394531 250.050781 177.078125 C 249.546875 176.121094 249 175.171875 248.429688 174.25 Z M 149.238281 183.15625 C 148.914062 183 148.523438 183.136719 148.367188 183.460938 C 147.902344 184.421875 147.445312 185.414062 147.011719 186.40625 C 146.871094 186.738281 147.019531 187.125 147.355469 187.265625 C 147.4375 187.300781 147.527344 187.320312 147.613281 187.320312 C 147.867188 187.320312 148.109375 187.175781 148.214844 186.929688 C 148.640625 185.953125 149.085938 184.976562 149.546875 184.027344 C 149.699219 183.703125 149.566406 183.3125 149.238281 183.15625 Z M 180.101562 153.148438 C 180.191406 153.148438 180.28125 153.128906 180.371094 153.089844 L 180.882812 152.867188 C 181.683594 152.519531 182.5 152.1875 183.308594 151.890625 C 183.644531 151.765625 183.820312 151.390625 183.695312 151.050781 C 183.566406 150.710938 183.191406 150.539062 182.851562 150.664062 C 182.023438 150.96875 181.183594 151.308594 180.363281 151.664062 L 179.835938 151.898438 C 179.503906 152.046875 179.355469 152.429688 179.503906 152.761719 C 179.613281 153.003906 179.851562 153.148438 180.101562 153.148438 Z M 255.003906 196.414062 C 255.363281 196.367188 255.617188 196.039062 255.570312 195.683594 C 255.433594 194.589844 255.277344 193.511719 255.105469 192.476562 C 255.046875 192.121094 254.714844 191.878906 254.355469 191.9375 C 253.996094 191.996094 253.757812 192.332031 253.8125 192.6875 C 253.980469 193.707031 254.136719 194.769531 254.269531 195.847656 C 254.316406 196.175781 254.597656 196.417969 254.921875 196.417969 C 254.949219 196.417969 254.976562 196.414062 255.003906 196.414062 Z M 138.597656 229.851562 C 138.238281 229.832031 137.929688 230.109375 137.90625 230.46875 C 137.878906 231.015625 137.851562 231.5625 137.828125 232.109375 C 137.808594 232.46875 138.089844 232.777344 138.449219 232.792969 C 138.460938 232.792969 138.472656 232.792969 138.480469 232.792969 C 138.828125 232.792969 139.117188 232.519531 139.132812 232.171875 C 139.160156 231.625 139.1875 231.082031 139.214844 230.539062 C 139.234375 230.179688 138.960938 229.871094 138.597656 229.851562 Z M 107.351562 183.039062 C 108.414062 183.039062 109.332031 182.320312 109.585938 181.277344 C 109.867188 180.054688 109.105469 178.820312 107.882812 178.527344 C 107.707031 178.484375 107.527344 178.464844 107.351562 178.464844 C 106.734375 178.464844 106.160156 178.726562 105.730469 179.160156 L 107.203125 183.023438 C 107.25 183.03125 107.300781 183.039062 107.351562 183.039062 Z M 237.023438 113.640625 C 236.757812 113.539062 236.480469 113.484375 236.195312 113.484375 C 235.242188 113.484375 234.402344 114.058594 234.054688 114.953125 C 233.609375 116.128906 234.203125 117.457031 235.378906 117.910156 C 235.644531 118.011719 235.925781 118.0625 236.191406 118.0625 C 237.136719 118.0625 238 117.476562 238.335938 116.597656 C 238.554688 116.03125 238.539062 115.40625 238.292969 114.847656 C 238.042969 114.289062 237.59375 113.859375 237.023438 113.640625 Z M 222.535156 113.742188 C 222.71875 113.792969 222.910156 113.820312 223.132812 113.820312 C 224.175781 113.820312 225.085938 113.117188 225.34375 112.113281 C 225.664062 110.894531 224.933594 109.640625 223.714844 109.324219 C 223.519531 109.269531 223.320312 109.242188 223.121094 109.242188 C 222.085938 109.242188 221.179688 109.945312 220.917969 110.949219 C 220.757812 111.535156 220.839844 112.152344 221.144531 112.679688 C 221.453125 113.210938 221.953125 113.589844 222.535156 113.742188 Z M 209.359375 111.171875 L 210.101562 111.261719 L 210.101562 111.140625 C 211.046875 110.949219 211.796875 110.171875 211.921875 109.183594 C 212.078125 107.933594 211.1875 106.789062 209.933594 106.621094 C 209.839844 106.613281 209.742188 106.605469 209.648438 106.605469 C 208.492188 106.605469 207.519531 107.46875 207.375 108.609375 C 207.222656 109.859375 208.113281 111.007812 209.359375 111.171875 Z M 280.324219 149.074219 C 280.746094 149.074219 281.160156 148.957031 281.523438 148.738281 C 282.601562 148.078125 282.9375 146.667969 282.277344 145.585938 C 281.859375 144.902344 281.125 144.496094 280.320312 144.496094 C 279.902344 144.496094 279.488281 144.613281 279.121094 144.835938 C 278.046875 145.5 277.714844 146.914062 278.371094 147.984375 C 278.789062 148.664062 279.519531 149.074219 280.324219 149.074219 Z M 288.589844 172.691406 C 288.855469 173.6875 289.765625 174.382812 290.796875 174.382812 C 291.019531 174.382812 291.214844 174.355469 291.402344 174.304688 C 292.621094 173.976562 293.34375 172.714844 293.015625 171.496094 C 292.742188 170.5 291.832031 169.804688 290.800781 169.804688 C 290.597656 169.804688 290.394531 169.832031 290.203125 169.882812 C 288.984375 170.214844 288.261719 171.472656 288.589844 172.691406 Z M 195.9375 110.511719 L 196 110.511719 L 196.011719 110.507812 C 197.269531 110.464844 198.261719 109.40625 198.226562 108.144531 C 198.179688 106.902344 197.171875 105.929688 195.929688 105.929688 L 195.863281 105.933594 C 195.25 105.949219 194.683594 106.207031 194.261719 106.652344 C 193.84375 107.101562 193.621094 107.683594 193.644531 108.292969 C 193.679688 109.535156 194.6875 110.511719 195.9375 110.511719 Z M 249.8125 119.109375 C 249.503906 118.964844 249.171875 118.890625 248.832031 118.890625 C 247.949219 118.890625 247.136719 119.402344 246.761719 120.199219 C 246.222656 121.339844 246.714844 122.707031 247.859375 123.246094 C 248.171875 123.394531 248.496094 123.46875 248.832031 123.46875 C 249.722656 123.46875 250.535156 122.949219 250.902344 122.152344 C 251.164062 121.601562 251.199219 120.980469 250.992188 120.40625 C 250.785156 119.832031 250.367188 119.371094 249.8125 119.109375 Z M 286.4375 161.367188 C 286.726562 161.367188 287.011719 161.308594 287.300781 161.199219 C 288.472656 160.71875 289.039062 159.378906 288.5625 158.214844 C 288.210938 157.34375 287.378906 156.78125 286.441406 156.78125 C 286.148438 156.78125 285.859375 156.839844 285.582031 156.949219 C 284.417969 157.425781 283.847656 158.761719 284.3125 159.929688 C 284.667969 160.800781 285.503906 161.367188 286.4375 161.367188 Z M 144.191406 122.71875 C 143.761719 122.71875 143.347656 122.835938 142.984375 123.0625 C 141.914062 123.730469 141.582031 125.144531 142.25 126.222656 C 142.675781 126.894531 143.402344 127.300781 144.199219 127.300781 C 144.628906 127.300781 145.050781 127.179688 145.40625 126.953125 C 146.480469 126.28125 146.808594 124.871094 146.140625 123.800781 C 145.71875 123.121094 144.988281 122.71875 144.191406 122.71875 Z M 122.574219 145.160156 C 122.976562 145.453125 123.445312 145.605469 123.9375 145.605469 C 124.660156 145.605469 125.347656 145.261719 125.78125 144.683594 C 126.523438 143.675781 126.3125 142.238281 125.300781 141.476562 C 124.90625 141.1875 124.4375 141.03125 123.945312 141.03125 C 123.21875 141.03125 122.527344 141.378906 122.097656 141.960938 C 121.734375 142.453125 121.582031 143.058594 121.671875 143.660156 C 121.761719 144.261719 122.082031 144.796875 122.574219 145.160156 Z M 182.285156 112.058594 C 182.433594 112.058594 182.578125 112.042969 182.726562 112.015625 C 183.964844 111.777344 184.777344 110.574219 184.539062 109.332031 C 184.335938 108.257812 183.386719 107.476562 182.292969 107.476562 C 182.144531 107.476562 182.003906 107.492188 181.859375 107.519531 C 181.257812 107.632812 180.738281 107.972656 180.394531 108.480469 C 180.050781 108.988281 179.925781 109.597656 180.042969 110.203125 C 180.246094 111.277344 181.191406 112.058594 182.285156 112.058594 Z M 115.683594 157.039062 C 116.007812 157.207031 116.371094 157.296875 116.738281 157.296875 C 117.601562 157.296875 118.378906 156.816406 118.773438 156.050781 C 119.054688 155.507812 119.105469 154.886719 118.917969 154.304688 C 118.730469 153.722656 118.328125 153.246094 117.78125 152.964844 C 117.460938 152.800781 117.097656 152.710938 116.734375 152.710938 C 115.871094 152.710938 115.085938 153.191406 114.695312 153.957031 C 114.414062 154.5 114.367188 155.121094 114.554688 155.707031 C 114.746094 156.285156 115.148438 156.761719 115.683594 157.039062 Z M 133.164062 130.882812 C 132.601562 130.882812 132.058594 131.085938 131.636719 131.460938 C 131.179688 131.871094 130.914062 132.429688 130.875 133.042969 C 130.839844 133.652344 131.046875 134.238281 131.453125 134.6875 C 131.882812 135.183594 132.503906 135.464844 133.160156 135.464844 C 133.726562 135.464844 134.269531 135.253906 134.6875 134.878906 C 135.628906 134.042969 135.710938 132.589844 134.871094 131.644531 C 134.4375 131.15625 133.816406 130.882812 133.164062 130.882812 Z M 110.496094 169.753906 C 110.757812 169.84375 111.011719 169.886719 111.273438 169.886719 C 112.230469 169.886719 113.097656 169.28125 113.425781 168.378906 C 113.855469 167.1875 113.238281 165.875 112.050781 165.445312 C 111.800781 165.355469 111.535156 165.308594 111.269531 165.308594 C 110.472656 165.308594 109.742188 165.726562 109.328125 166.390625 L 109.265625 166.390625 L 109.113281 166.824219 C 108.691406 168.007812 109.304688 169.324219 110.496094 169.753906 Z M 262.859375 128.925781 C 263.523438 127.859375 263.203125 126.445312 262.136719 125.773438 C 261.769531 125.542969 261.351562 125.421875 260.921875 125.421875 C 260.125 125.421875 259.398438 125.820312 258.984375 126.484375 C 258.304688 127.554688 258.628906 128.96875 259.695312 129.644531 C 260.066406 129.878906 260.488281 130 260.917969 130 C 261.703125 130 262.429688 129.601562 262.859375 128.925781 Z M 168.902344 115.792969 L 169.769531 115.5 C 170.347656 115.300781 170.8125 114.886719 171.082031 114.335938 C 171.351562 113.785156 171.390625 113.164062 171.191406 112.585938 C 170.871094 111.664062 170.003906 111.039062 169.027344 111.039062 C 168.773438 111.039062 168.523438 111.082031 168.28125 111.167969 C 167.703125 111.363281 167.238281 111.777344 166.96875 112.328125 C 166.699219 112.875 166.664062 113.496094 166.859375 114.066406 C 167.160156 114.953125 167.96875 115.566406 168.902344 115.617188 Z M 158.457031 119.304688 C 158.667969 118.726562 158.640625 118.105469 158.378906 117.558594 C 158.007812 116.753906 157.191406 116.234375 156.304688 116.234375 C 155.964844 116.234375 155.640625 116.308594 155.339844 116.453125 C 154.195312 116.980469 153.699219 118.34375 154.226562 119.488281 C 154.597656 120.292969 155.414062 120.8125 156.308594 120.8125 C 156.648438 120.8125 156.972656 120.738281 157.269531 120.601562 C 157.828125 120.339844 158.25 119.878906 158.457031 119.304688 Z M 271.800781 138.347656 C 272.425781 138.347656 273.027344 138.089844 273.460938 137.640625 C 274.332031 136.726562 274.300781 135.277344 273.394531 134.40625 C 272.960938 133.996094 272.398438 133.765625 271.800781 133.765625 C 271.175781 133.765625 270.589844 134.015625 270.148438 134.46875 C 269.28125 135.378906 269.3125 136.832031 270.214844 137.710938 C 270.648438 138.121094 271.210938 138.347656 271.800781 138.347656 Z M 229.851562 199.367188 C 232.769531 209.910156 232.066406 220.9375 230.644531 231.730469 C 227.507812 231.640625 224.394531 231.554688 221.324219 231.472656 C 221.359375 222.394531 220.621094 213.273438 218.871094 204.386719 C 217.105469 195.4375 211.0625 188.550781 201.265625 189.726562 C 191.734375 190.871094 185.675781 199.304688 182.710938 207.730469 C 180.125 215.082031 178.632812 222.972656 177.511719 230.820312 C 176.644531 230.832031 175.824219 230.851562 175.070312 230.871094 C 172.878906 230.9375 170.476562 231.011719 167.917969 231.101562 C 168.441406 223.265625 169.320312 215.441406 170.976562 207.820312 C 173.234375 197.445312 177.496094 187.230469 185.988281 180.429688 C 193.796875 174.179688 204.183594 172.335938 213.152344 177.242188 C 221.5 181.808594 227.347656 190.3125 229.851562 199.367188 "/>
</g>
<g clip-path="url(#clip3)" clip-rule="nonzero">
<path style=" stroke:none;fill-rule:nonzero;fill:rgb(74.508667%,14.898682%,17.649841%);fill-opacity:1;" d="M 222.148438 252.34375 C 222.148438 249.636719 224.34375 247.445312 227.050781 247.445312 C 229.761719 247.445312 233.859375 250.320312 233.859375 253.027344 C 233.859375 255.734375 229.761719 258.609375 227.050781 258.609375 C 224.34375 258.609375 222.148438 255.046875 222.148438 252.34375 Z M 296.734375 101.304688 C 296.734375 98.597656 298.929688 96.40625 301.636719 96.40625 C 304.34375 96.40625 308.441406 99.285156 308.441406 101.988281 C 308.441406 104.695312 304.34375 107.574219 301.636719 107.574219 C 298.929688 107.574219 296.734375 104.007812 296.734375 101.304688 Z M 318.605469 231.117188 C 317.703125 231.117188 316.96875 231.847656 316.96875 232.75 C 316.96875 233.65625 317.703125 234.386719 318.605469 234.386719 C 319.507812 234.386719 320.242188 233.65625 320.242188 232.75 C 320.242188 231.847656 319.507812 231.117188 318.605469 231.117188 Z M 343.480469 231.117188 C 342.574219 231.117188 341.84375 231.847656 341.84375 232.75 C 341.84375 233.65625 342.574219 234.386719 343.480469 234.386719 C 344.382812 234.386719 345.113281 233.65625 345.113281 232.75 C 345.113281 231.847656 344.382812 231.117188 343.480469 231.117188 Z M 331.042969 231.117188 C 330.140625 231.117188 329.40625 231.847656 329.40625 232.75 C 329.40625 233.65625 330.140625 234.386719 331.042969 234.386719 C 331.945312 234.386719 332.679688 233.65625 332.679688 232.75 C 332.679688 231.847656 331.945312 231.117188 331.042969 231.117188 Z M 281.292969 231.117188 C 280.390625 231.117188 279.65625 231.847656 279.65625 232.75 C 279.65625 233.65625 280.390625 234.386719 281.292969 234.386719 C 282.199219 234.386719 282.929688 233.65625 282.929688 232.75 C 282.929688 231.847656 282.199219 231.117188 281.292969 231.117188 Z M 306.167969 231.117188 C 305.265625 231.117188 304.53125 231.847656 304.53125 232.75 C 304.53125 233.65625 305.265625 234.386719 306.167969 234.386719 C 307.074219 234.386719 307.804688 233.65625 307.804688 232.75 C 307.804688 231.847656 307.074219 231.117188 306.167969 231.117188 Z M 293.730469 231.117188 C 292.828125 231.117188 292.09375 231.847656 292.09375 232.75 C 292.09375 233.65625 292.828125 234.386719 293.730469 234.386719 C 294.636719 234.386719 295.367188 233.65625 295.367188 232.75 C 295.367188 231.847656 294.636719 231.117188 293.730469 231.117188 Z M 268.855469 231.117188 C 267.953125 231.117188 267.21875 231.847656 267.21875 232.75 C 267.21875 233.65625 267.953125 234.386719 268.855469 234.386719 C 269.761719 234.386719 270.492188 233.65625 270.492188 232.75 C 270.492188 231.847656 269.761719 231.117188 268.855469 231.117188 Z M 55.867188 230.097656 C 54.964844 230.097656 54.230469 230.828125 54.230469 231.730469 C 54.230469 232.632812 54.964844 233.367188 55.867188 233.367188 C 56.769531 233.367188 57.503906 232.632812 57.503906 231.730469 C 57.503906 230.828125 56.769531 230.097656 55.867188 230.097656 Z M 68.304688 230.097656 C 67.402344 230.097656 66.667969 230.828125 66.667969 231.730469 C 66.667969 232.632812 67.402344 233.367188 68.304688 233.367188 C 69.207031 233.367188 69.941406 232.632812 69.941406 231.730469 C 69.941406 230.828125 69.207031 230.097656 68.304688 230.097656 Z M 43.429688 230.097656 C 42.527344 230.097656 41.792969 230.828125 41.792969 231.730469 C 41.792969 232.632812 42.527344 233.367188 43.429688 233.367188 C 44.332031 233.367188 45.066406 232.632812 45.066406 231.730469 C 45.066406 230.828125 44.332031 230.097656 43.429688 230.097656 Z M 30.992188 230.097656 C 30.089844 230.097656 29.355469 230.828125 29.355469 231.730469 C 29.355469 232.632812 30.089844 233.367188 30.992188 233.367188 C 31.894531 233.367188 32.628906 232.632812 32.628906 231.730469 C 32.628906 230.828125 31.894531 230.097656 30.992188 230.097656 Z M 80.742188 230.097656 C 79.839844 230.097656 79.105469 230.828125 79.105469 231.730469 C 79.105469 232.632812 79.839844 233.367188 80.742188 233.367188 C 81.644531 233.367188 82.378906 232.632812 82.378906 231.730469 C 82.378906 230.828125 81.644531 230.097656 80.742188 230.097656 Z M 93.179688 230.097656 C 92.277344 230.097656 91.542969 230.828125 91.542969 231.730469 C 91.542969 232.632812 92.277344 233.367188 93.179688 233.367188 C 94.082031 233.367188 94.816406 232.632812 94.816406 231.730469 C 94.816406 230.828125 94.082031 230.097656 93.179688 230.097656 Z M 118.054688 230.097656 C 117.152344 230.097656 116.417969 230.828125 116.417969 231.730469 C 116.417969 232.632812 117.152344 233.367188 118.054688 233.367188 C 118.957031 233.367188 119.691406 232.632812 119.691406 231.730469 C 119.691406 230.828125 118.957031 230.097656 118.054688 230.097656 Z M 105.617188 230.097656 C 104.714844 230.097656 103.980469 230.828125 103.980469 231.730469 C 103.980469 232.632812 104.714844 233.367188 105.617188 233.367188 C 106.519531 233.367188 107.253906 232.632812 107.253906 231.730469 C 107.253906 230.828125 106.519531 230.097656 105.617188 230.097656 Z M 130.492188 230.097656 C 129.585938 230.097656 128.855469 230.828125 128.855469 231.730469 C 128.855469 232.632812 129.585938 233.367188 130.492188 233.367188 C 131.394531 233.367188 132.125 232.632812 132.125 231.730469 C 132.125 230.828125 131.394531 230.097656 130.492188 230.097656 Z M 292.382812 171.667969 C 292.148438 170.796875 291.242188 170.28125 290.371094 170.515625 C 289.503906 170.75 288.984375 171.648438 289.21875 172.523438 C 289.417969 173.25 290.078125 173.726562 290.796875 173.726562 C 290.941406 173.726562 291.085938 173.714844 291.230469 173.671875 C 292.101562 173.4375 292.617188 172.535156 292.382812 171.667969 Z M 287.957031 158.460938 C 287.617188 157.621094 286.667969 157.214844 285.828125 157.558594 C 284.992188 157.898438 284.585938 158.847656 284.921875 159.683594 C 285.183594 160.324219 285.789062 160.710938 286.4375 160.710938 C 286.640625 160.710938 286.851562 160.671875 287.054688 160.59375 C 287.886719 160.253906 288.296875 159.300781 287.957031 158.460938 Z M 281.71875 145.929688 C 281.246094 145.164062 280.238281 144.921875 279.46875 145.390625 C 278.695312 145.871094 278.460938 146.875 278.929688 147.644531 C 279.238281 148.144531 279.773438 148.417969 280.324219 148.417969 C 280.621094 148.417969 280.914062 148.34375 281.183594 148.179688 C 281.957031 147.707031 282.191406 146.699219 281.71875 145.929688 Z M 272.941406 134.878906 C 272.289062 134.253906 271.25 134.273438 270.621094 134.917969 C 270 135.574219 270.023438 136.609375 270.667969 137.238281 C 270.992188 137.542969 271.398438 137.695312 271.800781 137.695312 C 272.234375 137.695312 272.664062 137.523438 272.988281 137.191406 C 273.609375 136.535156 273.589844 135.5 272.941406 134.878906 Z M 261.785156 126.328125 C 261.027344 125.847656 260.015625 126.078125 259.535156 126.835938 C 259.050781 127.601562 259.28125 128.609375 260.046875 129.089844 C 260.3125 129.261719 260.613281 129.347656 260.917969 129.347656 C 261.457031 129.347656 261.992188 129.074219 262.304688 128.582031 C 262.78125 127.816406 262.554688 126.808594 261.785156 126.328125 Z M 249.53125 119.699219 C 248.714844 119.3125 247.742188 119.660156 247.355469 120.476562 C 246.96875 121.296875 247.320312 122.269531 248.140625 122.65625 C 248.363281 122.757812 248.597656 122.8125 248.832031 122.8125 C 249.449219 122.8125 250.035156 122.464844 250.3125 121.871094 C 250.699219 121.0625 250.351562 120.085938 249.53125 119.699219 Z M 236.789062 114.25 C 235.945312 113.925781 234.992188 114.34375 234.667969 115.1875 C 234.347656 116.03125 234.765625 116.972656 235.609375 117.300781 C 235.800781 117.371094 236.003906 117.410156 236.191406 117.410156 C 236.851562 117.410156 237.476562 117.011719 237.726562 116.363281 C 238.050781 115.519531 237.628906 114.570312 236.789062 114.25 Z M 223.546875 109.953125 C 222.667969 109.71875 221.78125 110.242188 221.550781 111.117188 C 221.3125 111.988281 221.839844 112.882812 222.714844 113.113281 C 222.851562 113.152344 222.988281 113.164062 223.132812 113.164062 C 223.851562 113.164062 224.519531 112.679688 224.710938 111.949219 C 224.941406 111.074219 224.414062 110.183594 223.546875 109.953125 Z M 209.851562 107.269531 C 208.957031 107.160156 208.136719 107.796875 208.027344 108.691406 C 207.914062 109.589844 208.550781 110.40625 209.445312 110.523438 L 209.445312 110.515625 C 209.511719 110.527344 209.582031 110.527344 209.648438 110.527344 C 210.460938 110.527344 211.167969 109.929688 211.273438 109.101562 C 211.382812 108.207031 210.75 107.390625 209.851562 107.269531 Z M 197.574219 108.167969 C 197.539062 107.265625 196.789062 106.558594 195.882812 106.585938 C 194.980469 106.613281 194.265625 107.371094 194.300781 108.273438 C 194.324219 109.15625 195.050781 109.855469 195.9375 109.855469 C 195.949219 109.855469 195.96875 109.855469 195.988281 109.855469 C 196.890625 109.824219 197.597656 109.070312 197.574219 108.167969 Z M 183.898438 109.457031 C 183.726562 108.574219 182.871094 107.992188 181.980469 108.160156 C 181.089844 108.332031 180.515625 109.195312 180.683594 110.078125 C 180.835938 110.863281 181.523438 111.40625 182.285156 111.40625 C 182.390625 111.40625 182.496094 111.390625 182.601562 111.371094 C 183.484375 111.203125 184.070312 110.347656 183.898438 109.457031 Z M 170.570312 112.800781 C 170.277344 111.941406 169.347656 111.492188 168.496094 111.785156 C 167.636719 112.078125 167.183594 113.007812 167.480469 113.859375 C 167.710938 114.539062 168.34375 114.964844 169.027344 114.964844 C 169.203125 114.964844 169.378906 114.9375 169.554688 114.871094 L 169.554688 114.878906 C 170.414062 114.582031 170.863281 113.648438 170.570312 112.800781 Z M 157.785156 117.835938 C 157.40625 117.019531 156.429688 116.660156 155.613281 117.042969 C 154.792969 117.421875 154.441406 118.390625 154.824219 119.214844 C 155.097656 119.8125 155.691406 120.160156 156.308594 120.160156 C 156.535156 120.160156 156.769531 120.113281 156.992188 120.007812 C 157.8125 119.628906 158.171875 118.652344 157.785156 117.835938 Z M 145.585938 124.148438 C 145.105469 123.382812 144.097656 123.140625 143.335938 123.617188 C 142.566406 124.097656 142.324219 125.101562 142.800781 125.875 C 143.117188 126.371094 143.652344 126.644531 144.199219 126.644531 C 144.492188 126.644531 144.792969 126.566406 145.0625 126.398438 C 145.828125 125.921875 146.0625 124.914062 145.585938 124.148438 Z M 134.382812 132.082031 C 133.785156 131.410156 132.75 131.351562 132.074219 131.949219 C 131.402344 132.554688 131.34375 133.585938 131.941406 134.261719 C 132.265625 134.625 132.710938 134.808594 133.160156 134.808594 C 133.546875 134.808594 133.941406 134.671875 134.253906 134.390625 C 134.921875 133.792969 134.988281 132.761719 134.382812 132.082031 Z M 124.914062 142.003906 C 124.1875 141.46875 123.160156 141.625 122.621094 142.351562 C 122.085938 143.078125 122.238281 144.097656 122.960938 144.632812 C 123.257812 144.851562 123.597656 144.953125 123.9375 144.953125 C 124.433594 144.953125 124.933594 144.726562 125.253906 144.292969 C 125.789062 143.566406 125.632812 142.546875 124.914062 142.003906 Z M 117.484375 153.546875 C 116.675781 153.136719 115.691406 153.449219 115.277344 154.253906 C 114.863281 155.058594 115.1875 156.046875 115.992188 156.460938 C 116.226562 156.582031 116.484375 156.640625 116.738281 156.640625 C 117.328125 156.640625 117.902344 156.316406 118.191406 155.753906 C 118.601562 154.949219 118.289062 153.960938 117.484375 153.546875 Z M 111.828125 166.0625 C 110.976562 165.753906 110.042969 166.191406 109.734375 167.042969 C 109.726562 167.042969 109.726562 167.042969 109.726562 167.042969 C 109.425781 167.890625 109.863281 168.828125 110.710938 169.136719 C 110.898438 169.199219 111.082031 169.234375 111.273438 169.234375 C 111.941406 169.234375 112.570312 168.820312 112.808594 168.15625 C 113.117188 167.304688 112.679688 166.367188 111.828125 166.0625 Z M 294.132812 154.035156 C 298.019531 162.328125 300.640625 170.960938 302.414062 179.78125 C 297.117188 179.8125 293.191406 182.722656 290.285156 186.871094 C 289.359375 180.375 287.972656 173.9375 285.957031 167.609375 C 282.386719 156.382812 277.015625 144.738281 268.164062 136.683594 C 259.4375 128.746094 248.128906 123.402344 237.300781 118.984375 C 225.886719 114.324219 213.746094 111.179688 201.386719 110.730469 C 189.027344 110.285156 176.746094 112.855469 165.304688 117.453125 C 154.191406 121.925781 142.972656 127.769531 134.21875 136.074219 C 125.648438 144.203125 119.644531 154.808594 115.417969 165.742188 C 112.191406 174.085938 110.085938 182.71875 108.734375 191.496094 C 108.453125 188.304688 107.898438 185.101562 106.941406 182.1875 C 106.957031 182.242188 106.980469 182.292969 106.996094 182.351562 C 107.121094 182.375 107.234375 182.386719 107.351562 182.386719 C 108.089844 182.386719 108.765625 181.882812 108.949219 181.132812 C 109.148438 180.253906 108.609375 179.371094 107.730469 179.160156 C 107.070312 179.003906 106.40625 179.273438 106.027344 179.796875 C 106.039062 179.820312 106.046875 179.847656 106.0625 179.871094 C 105.3125 178.167969 104.398438 176.609375 103.269531 175.277344 C 100.582031 172.113281 96.960938 170.410156 92.78125 170.324219 C 94.957031 162.046875 98.386719 154.167969 103.207031 146.855469 C 116.914062 126.0625 138.714844 112.414062 161.929688 104.417969 C 186.40625 95.988281 214.132812 93.601562 238.300781 104.335938 C 249.929688 109.5 261.160156 116.894531 271.109375 124.785156 C 281.03125 132.65625 288.757812 142.582031 294.132812 154.035156 Z M 234.074219 140.382812 C 234.445312 140.550781 234.816406 140.722656 235.1875 140.898438 L 239.679688 131.445312 C 239.257812 131.246094 238.84375 131.054688 238.421875 130.863281 Z M 224.347656 136.75 C 224.738281 136.867188 225.128906 136.984375 225.519531 137.109375 L 228.648438 127.121094 C 228.207031 126.984375 227.761719 126.847656 227.316406 126.714844 Z M 242.941406 145.320312 C 243.261719 145.546875 243.582031 145.773438 243.898438 146.007812 L 250.125 137.589844 C 249.738281 137.308594 249.347656 137.027344 248.953125 136.75 Z M 214.191406 134.488281 C 214.59375 134.550781 214.996094 134.613281 215.398438 134.683594 L 217.144531 124.363281 C 216.6875 124.289062 216.226562 124.214844 215.769531 124.144531 Z M 281.519531 197.75 L 271.164062 199.296875 C 271.175781 199.394531 271.191406 199.492188 271.207031 199.585938 C 271.453125 199.578125 271.707031 199.570312 271.960938 199.570312 C 273.042969 199.570312 274.191406 199.671875 275.367188 199.878906 C 275.460938 199.894531 275.558594 199.917969 275.65625 199.9375 L 281.714844 199.109375 C 281.652344 198.65625 281.585938 198.203125 281.519531 197.75 Z M 265.5625 154.148438 L 256.839844 159.9375 C 257.0625 160.273438 257.28125 160.613281 257.5 160.953125 L 266.328125 155.320312 C 266.078125 154.925781 265.820312 154.535156 265.5625 154.148438 Z M 258.136719 144.738281 L 250.507812 151.90625 C 250.785156 152.199219 251.050781 152.488281 251.320312 152.785156 L 259.097656 145.78125 C 258.78125 145.429688 258.460938 145.082031 258.136719 144.738281 Z M 203.796875 133.601562 C 204.207031 133.609375 204.617188 133.621094 205.027344 133.632812 L 205.394531 123.175781 C 204.929688 123.160156 204.46875 123.144531 204.003906 123.136719 Z M 180.597656 125.734375 L 183.09375 135.898438 C 183.492188 135.800781 183.890625 135.707031 184.292969 135.613281 L 181.945312 125.414062 C 181.496094 125.519531 181.046875 125.625 180.597656 125.734375 Z M 126.011719 168.074219 L 135.390625 172.734375 C 135.570312 172.375 135.75 172.019531 135.9375 171.664062 L 126.65625 166.816406 C 126.4375 167.230469 126.222656 167.652344 126.011719 168.074219 Z M 131.972656 181.113281 L 122.023438 177.839844 C 121.875 178.28125 121.734375 178.726562 121.59375 179.167969 L 131.597656 182.277344 C 131.71875 181.886719 131.84375 181.5 131.972656 181.113281 Z M 279.558594 187.675781 C 279.453125 187.234375 279.34375 186.796875 279.234375 186.351562 L 269.074219 188.898438 C 269.179688 189.300781 269.277344 189.707031 269.375 190.113281 Z M 271.398438 164.425781 L 261.972656 168.984375 C 262.152344 169.355469 262.328125 169.726562 262.5 170.097656 L 271.992188 165.675781 C 271.800781 165.257812 271.601562 164.839844 271.398438 164.425781 Z M 192.214844 123.675781 L 193.371094 134.074219 C 193.777344 134.03125 194.1875 133.988281 194.59375 133.949219 L 193.597656 123.535156 C 193.132812 123.578125 192.671875 123.625 192.214844 123.675781 Z M 275.890625 175.230469 L 266.019531 178.71875 C 266.15625 179.113281 266.292969 179.503906 266.425781 179.898438 L 276.34375 176.523438 C 276.195312 176.09375 276.042969 175.660156 275.890625 175.230469 Z M 118.816406 190.566406 L 129.113281 192.472656 C 129.191406 192.066406 129.269531 191.65625 129.351562 191.246094 L 119.074219 189.222656 C 118.988281 189.671875 118.902344 190.117188 118.816406 190.566406 Z M 158.636719 134.335938 L 163.738281 143.476562 C 164.097656 143.277344 164.453125 143.078125 164.8125 142.886719 L 159.855469 133.667969 C 159.449219 133.886719 159.042969 134.109375 158.636719 134.335938 Z M 169.335938 129.296875 L 173.152344 139.039062 C 173.53125 138.890625 173.914062 138.746094 174.296875 138.601562 L 170.636719 128.800781 C 170.203125 128.960938 169.769531 129.125 169.335938 129.296875 Z M 132.167969 157.851562 L 140.699219 163.925781 C 140.933594 163.59375 141.171875 163.265625 141.414062 162.941406 L 132.996094 156.714844 C 132.71875 157.089844 132.441406 157.46875 132.167969 157.851562 Z M 139.804688 148.707031 L 147.316406 156.003906 C 147.597656 155.714844 147.882812 155.425781 148.171875 155.140625 L 140.796875 147.710938 C 140.460938 148.042969 140.132812 148.375 139.804688 148.707031 Z M 149.828125 139.992188 L 156.039062 148.417969 C 155.710938 148.664062 155.382812 148.90625 155.058594 149.152344 L 148.710938 140.828125 C 149.082031 140.546875 149.453125 140.269531 149.828125 139.992188 "/>
</g>
</g>
</svg>
