<?xml version="1.0" encoding="UTF-8"?>
<svg xmlns="http://www.w3.org/2000/svg" xmlns:xlink="http://www.w3.org/1999/xlink" width="375pt" height="374.999991pt" viewBox="0 0 375 374.999991" version="1.2">
<defs>
<clipPath id="clip1">
  <path d="M 98 173 L 296.90625 173 L 296.90625 180 L 98 180 Z M 98 173 "/>
</clipPath>
<clipPath id="clip2">
  <path d="M 72.398438 173.027344 L 82 173.027344 L 82 187.277344 L 72.398438 187.277344 Z M 72.398438 173.027344 "/>
</clipPath>
<clipPath id="clip3">
  <path d="M 82 173.027344 L 91.148438 173.027344 L 91.148438 187.277344 L 82 187.277344 Z M 82 173.027344 "/>
</clipPath>
</defs>
<g id="surface1">
<g clip-path="url(#clip1)" clip-rule="nonzero">
<path style=" stroke:none;fill-rule:nonzero;fill:rgb(19.999695%,20.388794%,43.139648%);fill-opacity:1;" d="M 101.164062 173.421875 C 102.710938 173.421875 103.976562 174.6875 103.976562 176.234375 C 103.976562 177.78125 102.710938 179.046875 101.164062 179.046875 C 99.617188 179.046875 98.351562 177.78125 98.351562 176.234375 C 98.351562 174.6875 99.617188 173.421875 101.164062 173.421875 Z M 112.410156 173.421875 C 113.957031 173.421875 115.222656 174.6875 115.222656 176.234375 C 115.222656 177.78125 113.957031 179.046875 112.410156 179.046875 C 110.863281 179.046875 109.597656 177.78125 109.597656 176.234375 C 109.597656 174.6875 110.863281 173.421875 112.410156 173.421875 Z M 123.65625 173.421875 C 125.203125 173.421875 126.46875 174.6875 126.46875 176.234375 C 126.46875 177.78125 125.203125 179.046875 123.65625 179.046875 C 122.109375 179.046875 120.84375 177.78125 120.84375 176.234375 C 120.84375 174.6875 122.109375 173.421875 123.65625 173.421875 Z M 134.902344 173.421875 C 136.449219 173.421875 137.714844 174.6875 137.714844 176.234375 C 137.714844 177.78125 136.449219 179.046875 134.902344 179.046875 C 133.355469 179.046875 132.089844 177.78125 132.089844 176.234375 C 132.089844 174.6875 133.355469 173.421875 134.902344 173.421875 Z M 146.148438 173.421875 C 147.695312 173.421875 148.960938 174.6875 148.960938 176.234375 C 148.960938 177.78125 147.695312 179.046875 146.148438 179.046875 C 144.605469 179.046875 143.339844 177.78125 143.339844 176.234375 C 143.339844 174.6875 144.605469 173.421875 146.148438 173.421875 Z M 157.398438 173.421875 C 158.941406 173.421875 160.207031 174.6875 160.207031 176.234375 C 160.207031 177.78125 158.941406 179.046875 157.398438 179.046875 C 155.851562 179.046875 154.585938 177.78125 154.585938 176.234375 C 154.585938 174.6875 155.851562 173.421875 157.398438 173.421875 Z M 168.644531 173.421875 C 170.191406 173.421875 171.457031 174.6875 171.457031 176.234375 C 171.457031 177.78125 170.191406 179.046875 168.644531 179.046875 C 167.097656 179.046875 165.832031 177.78125 165.832031 176.234375 C 165.832031 174.6875 167.097656 173.421875 168.644531 173.421875 Z M 179.890625 173.421875 C 181.4375 173.421875 182.703125 174.6875 182.703125 176.234375 C 182.703125 177.78125 181.4375 179.046875 179.890625 179.046875 C 178.34375 179.046875 177.078125 177.78125 177.078125 176.234375 C 177.078125 174.6875 178.34375 173.421875 179.890625 173.421875 Z M 191.136719 173.421875 C 192.683594 173.421875 193.949219 174.6875 193.949219 176.234375 C 193.949219 177.78125 192.683594 179.046875 191.136719 179.046875 C 189.589844 179.046875 188.324219 177.78125 188.324219 176.234375 C 188.324219 174.6875 189.589844 173.421875 191.136719 173.421875 Z M 202.382812 173.421875 C 203.929688 173.421875 205.195312 174.6875 205.195312 176.234375 C 205.195312 177.78125 203.929688 179.046875 202.382812 179.046875 C 200.835938 179.046875 199.570312 177.78125 199.570312 176.234375 C 199.570312 174.6875 200.835938 173.421875 202.382812 173.421875 Z M 213.628906 173.421875 C 215.175781 173.421875 216.441406 174.6875 216.441406 176.234375 C 216.441406 177.78125 215.175781 179.046875 213.628906 179.046875 C 212.082031 179.046875 210.820312 177.78125 210.820312 176.234375 C 210.820312 174.6875 212.082031 173.421875 213.628906 173.421875 Z M 224.878906 173.421875 C 226.421875 173.421875 227.6875 174.6875 227.6875 176.234375 C 227.6875 177.78125 226.421875 179.046875 224.878906 179.046875 C 223.332031 179.046875 222.066406 177.78125 222.066406 176.234375 C 222.066406 174.6875 223.332031 173.421875 224.878906 173.421875 Z M 236.125 173.421875 C 237.671875 173.421875 238.9375 174.6875 238.9375 176.234375 C 238.9375 177.78125 237.671875 179.046875 236.125 179.046875 C 234.578125 179.046875 233.3125 177.78125 233.3125 176.234375 C 233.3125 174.6875 234.578125 173.421875 236.125 173.421875 Z M 247.371094 173.421875 C 248.917969 173.421875 250.183594 174.6875 250.183594 176.234375 C 250.183594 177.78125 248.917969 179.046875 247.371094 179.046875 C 245.824219 179.046875 244.558594 177.78125 244.558594 176.234375 C 244.558594 174.6875 245.824219 173.421875 247.371094 173.421875 Z M 258.617188 173.421875 C 260.164062 173.421875 261.429688 174.6875 261.429688 176.234375 C 261.429688 177.78125 260.164062 179.046875 258.617188 179.046875 C 257.070312 179.046875 255.804688 177.78125 255.804688 176.234375 C 255.804688 174.6875 257.070312 173.421875 258.617188 173.421875 Z M 269.863281 173.421875 C 271.410156 173.421875 272.675781 174.6875 272.675781 176.234375 C 272.675781 177.78125 271.410156 179.046875 269.863281 179.046875 C 268.316406 179.046875 267.050781 177.78125 267.050781 176.234375 C 267.050781 174.6875 268.316406 173.421875 269.863281 173.421875 Z M 281.109375 173.421875 C 282.65625 173.421875 283.921875 174.6875 283.921875 176.234375 C 283.921875 177.78125 282.65625 179.046875 281.109375 179.046875 C 279.5625 179.046875 278.300781 177.78125 278.300781 176.234375 C 278.300781 174.6875 279.5625 173.421875 281.109375 173.421875 Z M 292.359375 173.421875 C 293.902344 173.421875 295.167969 174.6875 295.167969 176.234375 C 295.167969 177.78125 293.902344 179.046875 292.359375 179.046875 C 290.8125 179.046875 289.546875 177.78125 289.546875 176.234375 C 289.546875 174.6875 290.8125 173.421875 292.359375 173.421875 Z M 303.605469 173.421875 C 305.152344 173.421875 306.414062 174.6875 306.414062 176.234375 C 306.414062 177.78125 305.152344 179.046875 303.605469 179.046875 C 302.058594 179.046875 300.792969 177.78125 300.792969 176.234375 C 300.792969 174.6875 302.058594 173.421875 303.605469 173.421875 Z M 314.851562 173.421875 C 316.398438 173.421875 317.664062 174.6875 317.664062 176.234375 C 317.664062 177.78125 316.398438 179.046875 314.851562 179.046875 C 313.304688 179.046875 312.039062 177.78125 312.039062 176.234375 C 312.039062 174.6875 313.304688 173.421875 314.851562 173.421875 Z M 326.097656 173.421875 C 327.644531 173.421875 328.910156 174.6875 328.910156 176.234375 C 328.910156 177.78125 327.644531 179.046875 326.097656 179.046875 C 324.550781 179.046875 323.285156 177.78125 323.285156 176.234375 C 323.285156 174.6875 324.550781 173.421875 326.097656 173.421875 Z M 326.097656 173.421875 "/>
</g>
<g clip-path="url(#clip2)" clip-rule="nonzero">
<path style=" stroke:none;fill-rule:nonzero;fill:rgb(19.999695%,20.388794%,43.139648%);fill-opacity:1;" d="M 77.253906 179.132812 C 76.371094 179.132812 75.546875 179.433594 74.890625 179.921875 C 74.945312 177.855469 76.539062 175.8125 79.671875 173.746094 L 79.203125 173.03125 C 74.667969 175.847656 72.398438 178.960938 72.398438 182.320312 C 72.398438 183.878906 72.808594 185.078125 73.652344 185.960938 C 74.5 186.847656 75.566406 187.273438 76.859375 187.273438 C 78.152344 187.273438 79.183594 186.917969 79.988281 186.222656 C 80.777344 185.507812 81.171875 184.667969 81.171875 183.671875 C 81.171875 183.652344 81.171875 183.652344 81.171875 183.632812 C 81.1875 183.464844 81.207031 183.277344 81.207031 183.089844 C 81.207031 180.914062 79.425781 179.132812 77.253906 179.132812 Z M 77.253906 179.132812 "/>
</g>
<g clip-path="url(#clip3)" clip-rule="nonzero">
<path style=" stroke:none;fill-rule:nonzero;fill:rgb(19.999695%,20.388794%,43.139648%);fill-opacity:1;" d="M 90.042969 185.832031 C 90.097656 185.777344 90.152344 185.71875 90.207031 185.664062 C 90.789062 184.96875 91.148438 184.085938 91.148438 183.113281 C 91.148438 180.917969 89.367188 179.152344 87.191406 179.152344 C 86.195312 179.152344 85.277344 179.527344 84.582031 180.144531 C 84.582031 180.125 84.582031 180.109375 84.582031 180.070312 C 84.582031 177.96875 86.175781 175.867188 89.382812 173.765625 L 88.917969 173.03125 C 84.359375 175.847656 82.089844 178.960938 82.089844 182.320312 C 82.089844 183.878906 82.503906 185.078125 83.347656 185.960938 C 84.191406 186.847656 85.261719 187.273438 86.554688 187.273438 C 87.847656 187.273438 88.878906 186.917969 89.683594 186.222656 C 89.796875 186.128906 89.890625 186.015625 89.984375 185.90625 C 90.003906 185.886719 90.023438 185.867188 90.042969 185.832031 Z M 90.042969 185.832031 "/>
</g>
</g>
</svg>
