<?xml version="1.0" encoding="UTF-8"?>
<svg xmlns="http://www.w3.org/2000/svg" xmlns:xlink="http://www.w3.org/1999/xlink" width="375pt" height="374.999991pt" viewBox="0 0 375 374.999991" version="1.2">
<defs>
<clipPath id="clip1">
  <path d="M 82 184 L 280.929688 184 L 280.929688 191 L 82 191 Z M 82 184 "/>
</clipPath>
<clipPath id="clip2">
  <path d="M 296 176.453125 L 305.300781 176.453125 L 305.300781 190.703125 L 296 190.703125 Z M 296 176.453125 "/>
</clipPath>
<clipPath id="clip3">
  <path d="M 286.550781 176.453125 L 296 176.453125 L 296 190.703125 L 286.550781 190.703125 Z M 286.550781 176.453125 "/>
</clipPath>
</defs>
<g id="surface1">
<g clip-path="url(#clip1)" clip-rule="nonzero">
<path style=" stroke:none;fill-rule:nonzero;fill:rgb(19.999695%,20.388794%,43.139648%);fill-opacity:1;" d="M 85.183594 184.679688 C 86.730469 184.679688 87.996094 185.945312 87.996094 187.492188 C 87.996094 189.039062 86.730469 190.304688 85.183594 190.304688 C 83.640625 190.304688 82.375 189.039062 82.375 187.492188 C 82.375 185.945312 83.640625 184.679688 85.183594 184.679688 Z M 96.433594 184.679688 C 97.976562 184.679688 99.242188 185.945312 99.242188 187.492188 C 99.242188 189.039062 97.976562 190.304688 96.433594 190.304688 C 94.886719 190.304688 93.621094 189.039062 93.621094 187.492188 C 93.621094 185.945312 94.886719 184.679688 96.433594 184.679688 Z M 107.679688 184.679688 C 109.226562 184.679688 110.492188 185.945312 110.492188 187.492188 C 110.492188 189.039062 109.226562 190.304688 107.679688 190.304688 C 106.132812 190.304688 104.867188 189.039062 104.867188 187.492188 C 104.867188 185.945312 106.132812 184.679688 107.679688 184.679688 Z M 118.925781 184.679688 C 120.472656 184.679688 121.738281 185.945312 121.738281 187.492188 C 121.738281 189.039062 120.472656 190.304688 118.925781 190.304688 C 117.378906 190.304688 116.113281 189.039062 116.113281 187.492188 C 116.113281 185.945312 117.378906 184.679688 118.925781 184.679688 Z M 130.171875 184.679688 C 131.71875 184.679688 132.984375 185.945312 132.984375 187.492188 C 132.984375 189.039062 131.71875 190.304688 130.171875 190.304688 C 128.625 190.304688 127.359375 189.039062 127.359375 187.492188 C 127.359375 185.945312 128.625 184.679688 130.171875 184.679688 Z M 141.417969 184.679688 C 142.964844 184.679688 144.230469 185.945312 144.230469 187.492188 C 144.230469 189.039062 142.964844 190.304688 141.417969 190.304688 C 139.871094 190.304688 138.605469 189.039062 138.605469 187.492188 C 138.605469 185.945312 139.871094 184.679688 141.417969 184.679688 Z M 152.664062 184.679688 C 154.210938 184.679688 155.476562 185.945312 155.476562 187.492188 C 155.476562 189.039062 154.210938 190.304688 152.664062 190.304688 C 151.121094 190.304688 149.855469 189.039062 149.855469 187.492188 C 149.855469 185.945312 151.121094 184.679688 152.664062 184.679688 Z M 163.914062 184.679688 C 165.457031 184.679688 166.722656 185.945312 166.722656 187.492188 C 166.722656 189.039062 165.457031 190.304688 163.914062 190.304688 C 162.367188 190.304688 161.101562 189.039062 161.101562 187.492188 C 161.101562 185.945312 162.367188 184.679688 163.914062 184.679688 Z M 175.160156 184.679688 C 176.707031 184.679688 177.972656 185.945312 177.972656 187.492188 C 177.972656 189.039062 176.707031 190.304688 175.160156 190.304688 C 173.613281 190.304688 172.347656 189.039062 172.347656 187.492188 C 172.347656 185.945312 173.613281 184.679688 175.160156 184.679688 Z M 186.40625 184.679688 C 187.953125 184.679688 189.21875 185.945312 189.21875 187.492188 C 189.21875 189.039062 187.953125 190.304688 186.40625 190.304688 C 184.859375 190.304688 183.59375 189.039062 183.59375 187.492188 C 183.59375 185.945312 184.859375 184.679688 186.40625 184.679688 Z M 197.652344 184.679688 C 199.199219 184.679688 200.464844 185.945312 200.464844 187.492188 C 200.464844 189.039062 199.199219 190.304688 197.652344 190.304688 C 196.105469 190.304688 194.839844 189.039062 194.839844 187.492188 C 194.839844 185.945312 196.105469 184.679688 197.652344 184.679688 Z M 208.898438 184.679688 C 210.445312 184.679688 211.710938 185.945312 211.710938 187.492188 C 211.710938 189.039062 210.445312 190.304688 208.898438 190.304688 C 207.351562 190.304688 206.085938 189.039062 206.085938 187.492188 C 206.085938 185.945312 207.351562 184.679688 208.898438 184.679688 Z M 220.144531 184.679688 C 221.691406 184.679688 222.957031 185.945312 222.957031 187.492188 C 222.957031 189.039062 221.691406 190.304688 220.144531 190.304688 C 218.601562 190.304688 217.335938 189.039062 217.335938 187.492188 C 217.335938 185.945312 218.601562 184.679688 220.144531 184.679688 Z M 231.394531 184.679688 C 232.9375 184.679688 234.203125 185.945312 234.203125 187.492188 C 234.203125 189.039062 232.9375 190.304688 231.394531 190.304688 C 229.847656 190.304688 228.582031 189.039062 228.582031 187.492188 C 228.582031 185.945312 229.847656 184.679688 231.394531 184.679688 Z M 242.640625 184.679688 C 244.1875 184.679688 245.453125 185.945312 245.453125 187.492188 C 245.453125 189.039062 244.1875 190.304688 242.640625 190.304688 C 241.09375 190.304688 239.828125 189.039062 239.828125 187.492188 C 239.828125 185.945312 241.09375 184.679688 242.640625 184.679688 Z M 253.886719 184.679688 C 255.433594 184.679688 256.699219 185.945312 256.699219 187.492188 C 256.699219 189.039062 255.433594 190.304688 253.886719 190.304688 C 252.339844 190.304688 251.074219 189.039062 251.074219 187.492188 C 251.074219 185.945312 252.339844 184.679688 253.886719 184.679688 Z M 265.132812 184.679688 C 266.679688 184.679688 267.945312 185.945312 267.945312 187.492188 C 267.945312 189.039062 266.679688 190.304688 265.132812 190.304688 C 263.585938 190.304688 262.320312 189.039062 262.320312 187.492188 C 262.320312 185.945312 263.585938 184.679688 265.132812 184.679688 Z M 276.378906 184.679688 C 277.925781 184.679688 279.191406 185.945312 279.191406 187.492188 C 279.191406 189.039062 277.925781 190.304688 276.378906 190.304688 C 274.832031 190.304688 273.566406 189.039062 273.566406 187.492188 C 273.566406 185.945312 274.832031 184.679688 276.378906 184.679688 Z M 287.625 184.679688 C 289.171875 184.679688 290.4375 185.945312 290.4375 187.492188 C 290.4375 189.039062 289.171875 190.304688 287.625 190.304688 C 286.082031 190.304688 284.816406 189.039062 284.816406 187.492188 C 284.816406 185.945312 286.082031 184.679688 287.625 184.679688 Z M 298.875 184.679688 C 300.417969 184.679688 301.683594 185.945312 301.683594 187.492188 C 301.683594 189.039062 300.417969 190.304688 298.875 190.304688 C 297.328125 190.304688 296.0625 189.039062 296.0625 187.492188 C 296.0625 185.945312 297.328125 184.679688 298.875 184.679688 Z M 310.121094 184.679688 C 311.667969 184.679688 312.933594 185.945312 312.933594 187.492188 C 312.933594 189.039062 311.667969 190.304688 310.121094 190.304688 C 308.574219 190.304688 307.308594 189.039062 307.308594 187.492188 C 307.308594 185.945312 308.574219 184.679688 310.121094 184.679688 Z M 310.121094 184.679688 "/>
</g>
<g clip-path="url(#clip2)" clip-rule="nonzero">
<path style=" stroke:none;fill-rule:nonzero;fill:rgb(19.999695%,20.388794%,43.139648%);fill-opacity:1;" d="M 300.445312 184.597656 C 301.324219 184.597656 302.152344 184.300781 302.808594 183.8125 C 302.753906 185.875 301.15625 187.917969 298.027344 189.984375 L 298.496094 190.699219 C 303.03125 187.882812 305.300781 184.769531 305.300781 181.410156 C 305.300781 179.855469 304.890625 178.652344 304.042969 177.769531 C 303.199219 176.886719 302.132812 176.457031 300.839844 176.457031 C 299.546875 176.457031 298.515625 176.8125 297.707031 177.507812 C 296.921875 178.222656 296.527344 179.066406 296.527344 180.058594 C 296.527344 180.078125 296.527344 180.078125 296.527344 180.097656 C 296.507812 180.265625 296.488281 180.453125 296.488281 180.640625 C 296.488281 182.816406 298.269531 184.597656 300.445312 184.597656 Z M 300.445312 184.597656 "/>
</g>
<g clip-path="url(#clip3)" clip-rule="nonzero">
<path style=" stroke:none;fill-rule:nonzero;fill:rgb(19.999695%,20.388794%,43.139648%);fill-opacity:1;" d="M 287.65625 177.902344 C 287.601562 177.957031 287.542969 178.015625 287.488281 178.070312 C 286.90625 178.761719 286.550781 179.644531 286.550781 180.621094 C 286.550781 182.816406 288.332031 184.582031 290.507812 184.582031 C 291.5 184.582031 292.421875 184.203125 293.113281 183.585938 C 293.113281 183.605469 293.113281 183.625 293.113281 183.660156 C 293.113281 185.761719 291.519531 187.863281 288.316406 189.964844 L 288.78125 190.699219 C 293.339844 187.882812 295.605469 184.769531 295.605469 181.410156 C 295.605469 179.855469 295.195312 178.652344 294.351562 177.769531 C 293.503906 176.886719 292.4375 176.457031 291.144531 176.457031 C 289.851562 176.457031 288.820312 176.8125 288.015625 177.507812 C 287.902344 177.601562 287.808594 177.714844 287.714844 177.828125 C 287.695312 177.847656 287.675781 177.863281 287.65625 177.902344 Z M 287.65625 177.902344 "/>
</g>
</g>
</svg>
