<?xml version="1.0" encoding="UTF-8" standalone="no"?>
<svg
   xmlns:dc="http://purl.org/dc/elements/1.1/"
   xmlns:cc="http://creativecommons.org/ns#"
   xmlns:rdf="http://www.w3.org/1999/02/22-rdf-syntax-ns#"
   xmlns:svg="http://www.w3.org/2000/svg"
   xmlns="http://www.w3.org/2000/svg"
   xmlns:sodipodi="http://sodipodi.sourceforge.net/DTD/sodipodi-0.dtd"
   xmlns:inkscape="http://www.inkscape.org/namespaces/inkscape"
   width="409"
   height="435"
   viewBox="0 0 306.75 326.24999"
   version="1.2"
   id="svg440"
   sodipodi:docname="button-yellow.svg"
   inkscape:version="1.0.1 (3bc2e81, 2020-09-07)">
  <metadata
     id="metadata444">
    <rdf:RDF>
      <cc:Work
         rdf:about="">
        <dc:format>image/svg+xml</dc:format>
        <dc:type
           rdf:resource="http://purl.org/dc/dcmitype/StillImage" />
        <dc:title></dc:title>
      </cc:Work>
    </rdf:RDF>
  </metadata>
  <sodipodi:namedview
     pagecolor="#ffffff"
     bordercolor="#666666"
     borderopacity="1"
     objecttolerance="10"
     gridtolerance="10"
     guidetolerance="10"
     inkscape:pageopacity="0"
     inkscape:pageshadow="2"
     inkscape:window-width="1920"
     inkscape:window-height="1016"
     id="namedview442"
     showgrid="false"
     units="px"
     inkscape:zoom="1.724"
     inkscape:cx="250"
     inkscape:cy="250"
     inkscape:window-x="0"
     inkscape:window-y="27"
     inkscape:window-maximized="1"
     inkscape:current-layer="svg440" />
  <defs
     id="defs433">
    <clipPath
       id="clip1">
      <path
         d="M 33,23.894531 H 341 V 350.89453 H 33 Z m 0,0"
         id="path430" />
    </clipPath>
  </defs>
  <g
     id="surface1"
     transform="translate(-33.765625,-23.894531)">
    <g
       clip-path="url(#clip1)"
       clip-rule="nonzero"
       id="g437">
      <path
         style="fill:#faca3d;fill-opacity:1;fill-rule:nonzero;stroke:none"
         d="m 126.30078,330.23828 c -0.73437,-0.55469 -1.65625,-1.10937 -2.39453,-1.66016 z m 43.6875,20.28516 c -1.65625,-0.1836 -3.31641,-0.36719 -4.97656,-0.55078 -1.65625,-0.1875 -3.31641,-0.3711 -4.97656,-0.73829 -2.94922,-0.55468 -5.89844,-1.10546 -8.84766,-1.66015 -1.47266,-0.3711 -2.94922,-0.73828 -4.42188,-1.29297 l -0.92187,-0.18359 -0.37109,-0.1836 h -0.1836 l -1.10547,-0.36719 -2.02734,-0.73828 c -1.47656,-0.55468 -2.94922,-1.10937 -4.42578,-1.66015 -1.28906,-0.55469 -2.57813,-1.29297 -3.8711,-2.03125 -2.76562,-1.47266 -5.52734,-3.32032 -8.10937,-4.97657 l -1.84375,-1.29296 c -2.76562,-1.84375 -5.53125,-3.8711 -8.29687,-5.90235 -2.76172,-2.02734 -4.97657,-4.24219 -7.3711,-6.26953 -2.39844,-2.02734 -5.16015,-4.42578 -7.74219,-6.64062 -2.582028,-2.21094 -4.976559,-4.60938 -7.55859,-7.00782 -2.582031,-2.39843 -4.792969,-4.79687 -7.375,-7.1914 -2.578125,-2.39844 -4.976562,-5.16407 -7.371094,-7.7461 l 0.183594,0.1836 c -1.105469,-1.29297 -2.210938,-2.58203 -3.503906,-4.0586 -1.289063,-1.47656 -2.027344,-2.58203 -3.132813,-3.87109 l -6.265625,-8.11719 c -2.027344,-2.76562 -4.242187,-5.34765 -6.269531,-8.11328 -2.027344,-2.76953 -4.054687,-5.71875 -5.898437,-8.48437 -3.871094,-5.71875 -7.1875,-11.80469 -9.953126,-18.26172 -1.476562,-3.13282 -2.582031,-6.45313 -3.6875,-9.77344 -0.550781,-1.47656 -1.105468,-3.13672 -1.472656,-4.60938 -0.371094,-1.47656 -0.921875,-3.32031 -1.476562,-4.98046 -0.550782,-1.66016 -0.738282,-3.50391 -0.921875,-5.34766 -0.183594,-1.84375 -0.367188,-3.32031 -0.550781,-5.16406 -0.371094,-3.50391 -0.554688,-6.82422 -0.738282,-10.32813 -0.183594,-3.5039 -0.367187,-6.45703 -0.554687,-9.77734 -0.183594,-3.32031 -0.183594,-6.63672 -0.183594,-9.77344 0,-3.13672 0.554687,-6.82422 0.554687,-10.32812 0,-3.50391 0.367188,-6.82422 0.734376,-10.14454 0.921874,-6.82421 1.660156,-13.46484 2.765624,-20.28906 0.554688,-3.32031 1.292969,-6.63672 2.214844,-9.77344 0.921875,-3.13671 2.027344,-6.26953 3.316406,-9.40624 1.289063,-3.13672 2.394532,-5.90235 3.503907,-8.85157 1.105469,-2.95312 2.761719,-6.27343 4.238281,-9.40625 1.472656,-3.13672 2.949219,-5.902341 4.609375,-8.855466 1.65625,-2.765625 3.5,-5.347656 5.527344,-7.929688 2.03125,-2.765625 4.242187,-5.164062 6.453125,-7.746094 2.210937,-2.582031 4.609375,-4.792968 6.820312,-7.375 2.210938,-2.582031 4.425782,-4.980468 6.820313,-7.378906 2.582031,-2.398437 5.347656,-4.425781 8.109375,-6.269531 2.953125,-1.84375 5.902344,-3.503906 9.035156,-4.980469 3.13281,-1.476562 6.08203,-2.953125 9.21484,-4.425781 3.13282,-1.476563 6.26954,-2.769531 9.40235,-4.058594 3.13281,-1.292969 6.08203,-2.582031 9.21484,-3.875 3.13672,-1.289062 6.26953,-2.582031 9.58594,-3.871093 3.32031,-1.292969 6.63672,-2.765626 9.76953,-4.058594 3.13672,-1.289063 6.26953,-2.582032 9.40234,-3.6875 3.13282,-1.105469 6.63672,-2.582032 9.95313,-3.6875 3.32031,-1.109375 6.82031,-2.03125 10.32422,-2.582032 1.66015,-0.371093 3.3164,-0.554687 4.97656,-0.554687 1.84375,-0.183594 3.50391,-0.183594 5.34766,-0.183594 3.5,0 7.0039,0.183594 10.5039,0.367188 3.50391,0.183593 6.82031,0.738281 10.32422,1.476562 3.50391,0.738281 6.82031,1.476563 10.13672,2.398438 3.32031,0.921875 6.63672,2.027343 9.77344,3.320312 6.44922,2.394531 12.71875,5.164063 18.80078,8.480469 6.08203,3.320312 11.79687,7.195312 17.32812,11.4375 2.76563,2.210938 5.34375,4.425781 7.92578,6.640625 2.58204,2.210937 5.34375,4.609375 8.10938,7.007813 2.76562,2.394531 5.16406,4.425781 7.74219,6.636718 2.58203,2.03125 4.97656,4.242188 7.1914,6.640625 1.28907,1.476563 2.39453,2.765625 3.6836,4.242188 1.29297,1.476562 1.84375,2.582031 2.94922,3.875 2.03125,2.765625 4.05859,5.53125 6.08593,8.296875 4.05469,5.347656 7.92578,11.066406 11.24219,16.785156 1.66016,3.13281 3.13672,6.08594 4.79297,9.22266 1.66016,3.13281 2.94922,6.08593 4.42578,9.03515 2.94922,5.90235 5.71484,11.98828 7.74219,18.07422 0.55078,1.47656 0.92187,3.13672 1.28906,4.61328 0.36719,1.47266 0.73828,3.31641 0.92188,4.97656 0.55468,3.32032 1.10546,6.64063 1.47656,9.96094 0.73437,6.82422 1.28906,13.46485 1.83984,20.28906 0.55469,6.82422 0.92188,14.01563 0.73828,20.83985 0,3.32031 -0.36718,6.64062 -0.73828,9.95703 -0.36719,3.50781 -0.91797,7.01172 -1.47265,10.32812 -0.55469,3.32032 -1.28907,6.82422 -2.21094,10.14454 -0.92188,3.32031 -1.84375,6.64062 -2.94922,9.77734 -1.10547,3.13281 -2.21484,6.45312 -3.6875,9.58984 -1.47656,3.13672 -2.76563,6.26953 -4.42578,9.22266 -3.13281,6.08594 -6.82031,11.98828 -10.875,17.33594 -2.21094,2.76562 -4.42188,5.34765 -6.82031,7.92968 -2.39454,2.39844 -4.79297,4.79688 -7.375,6.82422 -1.28907,1.10547 -2.57813,2.02735 -3.8711,3.13672 l -3.86719,2.94922 c -2.58203,2.02734 -5.16406,4.05859 -7.92968,6.08594 -2.76563,2.03125 -5.52735,4.05859 -8.47657,6.08594 -2.94921,2.03125 -5.89843,3.875 -9.03515,5.71875 -3.13281,1.84375 -5.89844,3.32031 -9.03125,4.79687 -3.13281,1.47266 -6.08203,2.94922 -9.03125,4.23828 -2.94922,1.29297 -6.63672,2.76953 -9.95703,3.875 -3.13282,1.10547 -6.08203,2.21485 -9.39844,3.13672 l -1.66016,0.55078 -0.55468,0.1875 c -1.65625,0.55078 -3.31641,1.10547 -4.97657,1.65625 -6.26562,2.21485 -12.71875,3.32031 -19.16797,4.98047 -2.39843,0.55469 -4.79296,1.10938 -7.1914,1.66016 -2.21094,0.37109 -4.42188,0.73828 -6.82031,0.92187 -3.6875,0.3711 -7.5586,0.55469 -11.24219,0.55469 -2.39844,0.73828 -5.16406,0.55469 -7.92969,0.36719 z m 0,0"
         id="path435" />
    </g>
  </g>
</svg>
