<?xml version="1.0" encoding="UTF-8"?>
<svg xmlns="http://www.w3.org/2000/svg" xmlns:xlink="http://www.w3.org/1999/xlink" width="375pt" height="374.999991pt" viewBox="0 0 375 374.999991" version="1.2">
<defs>
<clipPath id="clip1">
  <path d="M 174 102 L 201.09375 102 L 201.09375 130 L 174 130 Z M 174 102 "/>
</clipPath>
<clipPath id="clip2">
  <path d="M 141.09375 171 L 184 171 L 184 178 L 141.09375 178 Z M 141.09375 171 "/>
</clipPath>
</defs>
<g id="surface1">
<g clip-path="url(#clip1)" clip-rule="nonzero">
<path style=" stroke:none;fill-rule:evenodd;fill:rgb(83.918762%,34.509277%,20.388794%);fill-opacity:1;" d="M 176.671875 102.804688 C 178.253906 102.789062 179.226562 103.082031 179.988281 103.785156 C 185.867188 109.164062 191.796875 114.492188 196.621094 120.898438 C 197.695312 122.328125 198.363281 123.929688 198.96875 125.585938 C 199.316406 126.53125 199.816406 127.394531 200.609375 128.074219 C 200.992188 128.402344 201.351562 128.847656 200.839844 129.347656 C 200.429688 129.746094 200.070312 129.398438 199.664062 129.210938 C 189.71875 124.585938 183.152344 115.929688 175.304688 108.804688 C 174.042969 107.660156 173.765625 106.085938 174.328125 104.464844 C 174.792969 103.132812 175.941406 102.820312 176.671875 102.804688 Z M 176.671875 102.804688 "/>
</g>
<g clip-path="url(#clip2)" clip-rule="nonzero">
<path style=" stroke:none;fill-rule:evenodd;fill:rgb(83.918762%,34.509277%,20.388794%);fill-opacity:1;" d="M 160.078125 171.636719 C 165.039062 171.480469 169.992188 171.539062 174.953125 171.667969 C 177.9375 171.746094 180.632812 172.558594 182.988281 174.414062 C 183.40625 174.742188 184.195312 174.972656 183.898438 175.644531 C 183.542969 176.453125 182.960938 175.8125 182.484375 175.625 C 181.808594 175.359375 181.125 175.359375 180.460938 175.613281 C 177.226562 176.835938 173.820312 176.96875 170.445312 177.007812 C 162.222656 177.105469 154 177.179688 145.785156 176.695312 C 144.207031 176.601562 142.835938 176.207031 141.796875 174.9375 C 140.613281 173.492188 140.914062 172.585938 142.777344 172.1875 C 143.449219 172.042969 144.148438 172.027344 144.835938 171.980469 C 149.910156 171.636719 154.996094 171.679688 160.078125 171.636719 Z M 160.078125 171.636719 "/>
</g>
<path style=" stroke:none;fill-rule:evenodd;fill:rgb(83.918762%,34.509277%,20.388794%);fill-opacity:1;" d="M 170.683594 240.394531 C 169.164062 240.417969 168.253906 239.867188 167.933594 238.59375 C 167.632812 237.398438 168.386719 236.796875 169.316406 236.226562 C 172.316406 234.386719 174.972656 232.082031 177.714844 229.898438 C 183.277344 225.472656 189.039062 221.394531 195.820312 218.996094 C 196.28125 218.832031 196.753906 218.433594 197.148438 219.007812 C 197.421875 219.410156 197.101562 219.738281 196.769531 219.921875 C 194.683594 221.082031 193.421875 223.101562 191.75 224.691406 C 186.144531 230.011719 179.9375 234.589844 173.734375 239.167969 C 172.78125 239.871094 171.738281 240.515625 170.683594 240.394531 Z M 170.683594 240.394531 "/>
<path style=" stroke:none;fill-rule:evenodd;fill:rgb(83.918762%,34.509277%,20.388794%);fill-opacity:1;" d="M 174.972656 207.523438 C 174.195312 207.582031 173.503906 207.199219 173.085938 206.410156 C 172.730469 205.75 172.664062 204.941406 173.308594 204.515625 C 175.867188 202.832031 177.578125 200.042969 180.601562 198.972656 C 181.0625 198.808594 181.46875 198.390625 181.972656 198.835938 C 182.511719 199.3125 182.011719 199.726562 181.894531 200.179688 C 181.199219 202.921875 179.621094 205.03125 177.359375 206.667969 C 176.6875 207.15625 175.957031 207.507812 174.972656 207.523438 Z M 174.972656 207.523438 "/>
<path style=" stroke:none;fill-rule:evenodd;fill:rgb(83.918762%,34.509277%,20.388794%);fill-opacity:1;" d="M 188.296875 146.351562 C 186.296875 145.640625 184.84375 144.199219 183.25 142.960938 C 182.269531 142.195312 181.363281 141.332031 180.4375 140.496094 C 180.082031 140.175781 179.558594 139.851562 180.035156 139.273438 C 180.417969 138.808594 180.847656 139.132812 181.210938 139.328125 C 184.253906 140.960938 186.300781 143.621094 188.296875 146.351562 Z M 188.296875 146.351562 "/>
</g>
</svg>
