<?xml version="1.0" encoding="UTF-8"?>
<svg xmlns="http://www.w3.org/2000/svg" xmlns:xlink="http://www.w3.org/1999/xlink" width="375pt" height="374.999991pt" viewBox="0 0 375 374.999991" version="1.2">
<defs>
<clipPath id="clip1">
  <path d="M 182 50.695312 L 193 50.695312 L 193 314.929688 L 182 314.929688 Z M 182 50.695312 "/>
</clipPath>
</defs>
<g id="surface1">
<g clip-path="url(#clip1)" clip-rule="nonzero">
<path style=" stroke:none;fill-rule:nonzero;fill:rgb(19.999695%,20.388794%,43.139648%);fill-opacity:1;" d="M 182.394531 308.832031 C 182.394531 305.96875 184.757812 303.625 187.644531 303.625 C 190.53125 303.625 192.894531 305.96875 192.894531 308.832031 C 192.894531 311.699219 190.53125 314.042969 187.644531 314.042969 C 184.757812 314.042969 182.394531 311.699219 182.394531 308.832031 Z M 182.394531 288.003906 C 182.394531 285.136719 184.757812 282.792969 187.644531 282.792969 C 190.53125 282.792969 192.894531 285.136719 192.894531 288.003906 C 192.894531 290.867188 190.53125 293.210938 187.644531 293.210938 C 184.757812 293.210938 182.394531 290.867188 182.394531 288.003906 Z M 182.394531 267.171875 C 182.394531 264.304688 184.757812 261.960938 187.644531 261.960938 C 190.53125 261.960938 192.894531 264.304688 192.894531 267.171875 C 192.894531 270.035156 190.53125 272.378906 187.644531 272.378906 C 184.757812 272.378906 182.394531 270.035156 182.394531 267.171875 Z M 182.394531 246.339844 C 182.394531 243.476562 184.757812 241.132812 187.644531 241.132812 C 190.53125 241.132812 192.894531 243.476562 192.894531 246.339844 C 192.894531 249.203125 190.53125 251.546875 187.644531 251.546875 C 184.757812 251.546875 182.394531 249.203125 182.394531 246.339844 Z M 182.394531 225.507812 C 182.394531 222.644531 184.757812 220.300781 187.644531 220.300781 C 190.53125 220.300781 192.894531 222.644531 192.894531 225.507812 C 192.894531 228.371094 190.53125 230.714844 187.644531 230.714844 C 184.757812 230.714844 182.394531 228.371094 182.394531 225.507812 Z M 182.394531 204.675781 C 182.394531 201.8125 184.757812 199.46875 187.644531 199.46875 C 190.53125 199.46875 192.894531 201.8125 192.894531 204.675781 C 192.894531 207.539062 190.53125 209.882812 187.644531 209.882812 C 184.757812 209.882812 182.394531 207.539062 182.394531 204.675781 Z M 182.394531 183.84375 C 182.394531 180.980469 184.757812 178.636719 187.644531 178.636719 C 190.53125 178.636719 192.894531 180.980469 192.894531 183.84375 C 192.894531 186.710938 190.53125 189.054688 187.644531 189.054688 C 184.757812 189.054688 182.394531 186.710938 182.394531 183.84375 Z M 182.394531 163.015625 C 182.394531 160.148438 184.757812 157.804688 187.644531 157.804688 C 190.53125 157.804688 192.894531 160.148438 192.894531 163.015625 C 192.894531 165.878906 190.53125 168.222656 187.644531 168.222656 C 184.757812 168.222656 182.394531 165.878906 182.394531 163.015625 Z M 182.394531 142.183594 C 182.394531 139.320312 184.757812 136.976562 187.644531 136.976562 C 190.53125 136.976562 192.894531 139.320312 192.894531 142.183594 C 192.894531 145.046875 190.53125 147.390625 187.644531 147.390625 C 184.757812 147.390625 182.394531 145.046875 182.394531 142.183594 Z M 182.394531 121.351562 C 182.394531 118.488281 184.757812 116.144531 187.644531 116.144531 C 190.53125 116.144531 192.894531 118.488281 192.894531 121.351562 C 192.894531 124.214844 190.53125 126.558594 187.644531 126.558594 C 184.757812 126.558594 182.394531 124.214844 182.394531 121.351562 Z M 182.394531 100.519531 C 182.394531 97.65625 184.757812 95.3125 187.644531 95.3125 C 190.53125 95.3125 192.894531 97.65625 192.894531 100.519531 C 192.894531 103.382812 190.53125 105.726562 187.644531 105.726562 C 184.757812 105.726562 182.394531 103.382812 182.394531 100.519531 Z M 182.394531 79.6875 C 182.394531 76.824219 184.757812 74.480469 187.644531 74.480469 C 190.53125 74.480469 192.894531 76.824219 192.894531 79.6875 C 192.894531 82.554688 190.53125 84.898438 187.644531 84.898438 C 184.757812 84.898438 182.394531 82.554688 182.394531 79.6875 Z M 182.394531 58.859375 C 182.394531 55.992188 184.757812 53.648438 187.644531 53.648438 C 190.53125 53.648438 192.894531 55.992188 192.894531 58.859375 C 192.894531 61.722656 190.53125 64.066406 187.644531 64.066406 C 184.757812 64.066406 182.394531 61.722656 182.394531 58.859375 Z M 182.394531 38.027344 C 182.394531 35.160156 184.757812 32.816406 187.644531 32.816406 C 190.53125 32.816406 192.894531 35.160156 192.894531 38.027344 C 192.894531 40.890625 190.53125 43.234375 187.644531 43.234375 C 184.757812 43.234375 182.394531 40.890625 182.394531 38.027344 Z M 182.394531 17.195312 C 182.394531 14.332031 184.757812 11.988281 187.644531 11.988281 C 190.53125 11.988281 192.894531 14.332031 192.894531 17.195312 C 192.894531 20.058594 190.53125 22.402344 187.644531 22.402344 C 184.757812 22.402344 182.394531 20.058594 182.394531 17.195312 Z M 182.394531 -3.636719 C 182.394531 -6.5 184.757812 -8.84375 187.644531 -8.84375 C 190.53125 -8.84375 192.894531 -6.5 192.894531 -3.636719 C 192.894531 -0.773438 190.53125 1.570312 187.644531 1.570312 C 184.757812 1.570312 182.394531 -0.773438 182.394531 -3.636719 Z M 182.394531 -24.46875 C 182.394531 -27.332031 184.757812 -29.675781 187.644531 -29.675781 C 190.53125 -29.675781 192.894531 -27.332031 192.894531 -24.46875 C 192.894531 -21.605469 190.53125 -19.261719 187.644531 -19.261719 C 184.757812 -19.261719 182.394531 -21.605469 182.394531 -24.46875 Z M 182.394531 -45.300781 C 182.394531 -48.164062 184.757812 -50.507812 187.644531 -50.507812 C 190.53125 -50.507812 192.894531 -48.164062 192.894531 -45.300781 C 192.894531 -42.433594 190.53125 -40.089844 187.644531 -40.089844 C 184.757812 -40.089844 182.394531 -42.433594 182.394531 -45.300781 Z M 182.394531 -66.128906 C 182.394531 -68.996094 184.757812 -71.339844 187.644531 -71.339844 C 190.53125 -71.339844 192.894531 -68.996094 192.894531 -66.128906 C 192.894531 -63.265625 190.53125 -60.921875 187.644531 -60.921875 C 184.757812 -60.921875 182.394531 -63.265625 182.394531 -66.128906 Z M 182.394531 -86.960938 C 182.394531 -89.824219 184.757812 -92.167969 187.644531 -92.167969 C 190.53125 -92.167969 192.894531 -89.824219 192.894531 -86.960938 C 192.894531 -84.097656 190.53125 -81.753906 187.644531 -81.753906 C 184.757812 -81.753906 182.394531 -84.097656 182.394531 -86.960938 Z M 182.394531 -107.792969 C 182.394531 -110.65625 184.757812 -113 187.644531 -113 C 190.53125 -113 192.894531 -110.65625 192.894531 -107.792969 C 192.894531 -104.929688 190.53125 -102.585938 187.644531 -102.585938 C 184.757812 -102.585938 182.394531 -104.929688 182.394531 -107.792969 Z M 182.394531 -107.792969 "/>
</g>
</g>
</svg>
