<?xml version="1.0" encoding="UTF-8"?>
<svg xmlns="http://www.w3.org/2000/svg" xmlns:xlink="http://www.w3.org/1999/xlink" width="375pt" height="374.999991pt" viewBox="0 0 375 374.999991" version="1.2">
<defs>
<clipPath id="clip1">
  <path d="M 166.710938 215 L 195 215 L 195 244 L 166.710938 244 Z M 166.710938 215 "/>
</clipPath>
<clipPath id="clip2">
  <path d="M 184 165 L 228.960938 165 L 228.960938 172 L 184 172 Z M 184 165 "/>
</clipPath>
</defs>
<g id="surface1">
<g clip-path="url(#clip1)" clip-rule="nonzero">
<path style=" stroke:none;fill-rule:evenodd;fill:rgb(83.918762%,34.509277%,20.388794%);fill-opacity:1;" d="M 192.050781 243.140625 C 190.40625 243.15625 189.402344 242.847656 188.609375 242.117188 C 182.507812 236.507812 176.355469 230.949219 171.355469 224.265625 C 170.238281 222.773438 169.546875 221.101562 168.917969 219.375 C 168.558594 218.390625 168.035156 217.488281 167.214844 216.78125 C 166.816406 216.441406 166.441406 215.972656 166.976562 215.453125 C 167.402344 215.039062 167.773438 215.402344 168.191406 215.597656 C 178.511719 220.417969 185.328125 229.449219 193.46875 236.878906 C 194.773438 238.074219 195.066406 239.71875 194.480469 241.40625 C 194 242.792969 192.808594 243.121094 192.050781 243.140625 Z M 192.050781 243.140625 "/>
</g>
<g clip-path="url(#clip2)" clip-rule="nonzero">
<path style=" stroke:none;fill-rule:evenodd;fill:rgb(83.918762%,34.509277%,20.388794%);fill-opacity:1;" d="M 209.265625 171.34375 C 204.121094 171.503906 198.980469 171.441406 193.835938 171.308594 C 190.734375 171.226562 187.941406 170.378906 185.496094 168.445312 C 185.0625 168.101562 184.246094 167.863281 184.550781 167.160156 C 184.917969 166.316406 185.527344 166.984375 186.019531 167.183594 C 186.722656 167.460938 187.429688 167.460938 188.121094 167.195312 C 191.472656 165.917969 195.007812 165.78125 198.511719 165.742188 C 207.039062 165.640625 215.570312 165.5625 224.09375 166.066406 C 225.730469 166.160156 227.15625 166.578125 228.234375 167.898438 C 229.457031 169.40625 229.148438 170.351562 227.214844 170.769531 C 226.519531 170.917969 225.792969 170.933594 225.082031 170.980469 C 219.816406 171.34375 214.539062 171.296875 209.265625 171.34375 Z M 209.265625 171.34375 "/>
</g>
<path style=" stroke:none;fill-rule:evenodd;fill:rgb(83.918762%,34.509277%,20.388794%);fill-opacity:1;" d="M 198.261719 99.625 C 199.839844 99.597656 200.78125 100.171875 201.113281 101.5 C 201.425781 102.75 200.644531 103.378906 199.683594 103.972656 C 196.570312 105.886719 193.8125 108.292969 190.96875 110.570312 C 185.199219 115.1875 179.21875 119.441406 172.183594 121.941406 C 171.703125 122.113281 171.214844 122.53125 170.804688 121.929688 C 170.519531 121.511719 170.851562 121.167969 171.199219 120.976562 C 173.363281 119.765625 174.667969 117.660156 176.40625 116.003906 C 182.222656 110.453125 188.660156 105.675781 195.097656 100.898438 C 196.085938 100.167969 197.167969 99.496094 198.261719 99.625 Z M 198.261719 99.625 "/>
<path style=" stroke:none;fill-rule:evenodd;fill:rgb(83.918762%,34.509277%,20.388794%);fill-opacity:1;" d="M 193.8125 133.910156 C 194.621094 133.851562 195.335938 134.25 195.769531 135.070312 C 196.136719 135.761719 196.207031 136.601562 195.539062 137.046875 C 192.886719 138.804688 191.109375 141.710938 187.972656 142.828125 C 187.492188 143 187.074219 143.4375 186.550781 142.972656 C 185.992188 142.472656 186.511719 142.042969 186.628906 141.566406 C 187.351562 138.710938 188.988281 136.507812 191.335938 134.800781 C 192.035156 134.292969 192.789062 133.925781 193.8125 133.910156 Z M 193.8125 133.910156 "/>
<path style=" stroke:none;fill-rule:evenodd;fill:rgb(83.918762%,34.509277%,20.388794%);fill-opacity:1;" d="M 179.988281 197.714844 C 182.0625 198.457031 183.574219 199.960938 185.222656 201.253906 C 186.242188 202.050781 187.183594 202.953125 188.144531 203.824219 C 188.511719 204.160156 189.054688 204.496094 188.558594 205.097656 C 188.160156 205.582031 187.714844 205.246094 187.339844 205.042969 C 184.179688 203.339844 182.058594 200.5625 179.988281 197.714844 Z M 179.988281 197.714844 "/>
</g>
</svg>
