<?xml version="1.0" encoding="UTF-8"?>
<svg xmlns="http://www.w3.org/2000/svg" xmlns:xlink="http://www.w3.org/1999/xlink" width="375pt" height="374.999991pt" viewBox="0 0 375 374.999991" version="1.2">
<defs>
<clipPath id="clip1">
  <path d="M 24.390625 31 L 337.140625 31 L 337.140625 343 L 24.390625 343 Z M 24.390625 31 "/>
</clipPath>
</defs>
<g id="surface1">
<rect x="0" y="0" width="375" height="374.999991" style="fill:rgb(100%,100%,100%);fill-opacity:1;stroke:none;"/>
<rect x="0" y="0" width="375" height="374.999991" style="fill:rgb(100%,100%,100%);fill-opacity:1;stroke:none;"/>
<rect x="0" y="0" width="375" height="374.999991" style="fill:rgb(19.999695%,20.388794%,43.139648%);fill-opacity:1;stroke:none;"/>
<g clip-path="url(#clip1)" clip-rule="nonzero">
<path style=" stroke:none;fill-rule:nonzero;fill:rgb(100%,100%,100%);fill-opacity:1;" d="M 180.765625 31.546875 C 94.398438 31.546875 24.390625 101.554688 24.390625 187.921875 C 24.390625 266.324219 82.140625 331.054688 157.394531 342.359375 L 157.394531 229.359375 L 118.695312 229.359375 L 118.695312 188.257812 L 157.394531 188.257812 L 157.394531 160.90625 C 157.394531 115.617188 179.453125 95.746094 217.09375 95.746094 C 235.113281 95.746094 244.652344 97.078125 249.160156 97.691406 L 249.160156 133.574219 L 223.492188 133.574219 C 207.515625 133.574219 201.9375 148.71875 201.9375 165.800781 L 201.9375 188.269531 L 248.765625 188.269531 L 242.414062 229.371094 L 201.9375 229.371094 L 201.9375 342.707031 C 278.257812 332.339844 337.140625 267.082031 337.140625 187.921875 C 337.140625 101.554688 267.132812 31.546875 180.765625 31.546875 Z M 180.765625 31.546875 "/>
</g>
</g>
</svg>
