<?xml version="1.0" encoding="UTF-8"?>
<svg xmlns="http://www.w3.org/2000/svg" xmlns:xlink="http://www.w3.org/1999/xlink" width="375pt" height="374.999991pt" viewBox="0 0 375 374.999991" version="1.2">
<defs>
<clipPath id="clip1">
  <path d="M 157.070312 37.644531 L 341.25 37.644531 L 341.25 221 L 157.070312 221 Z M 157.070312 37.644531 "/>
</clipPath>
<clipPath id="clip2">
  <path d="M 48.257812 101.183594 L 293.707031 101.183594 L 293.707031 326.109375 L 48.257812 326.109375 Z M 48.257812 101.183594 "/>
</clipPath>
<clipPath id="clip3">
  <path d="M 37.5 129 L 299 129 L 299 318 L 37.5 318 Z M 37.5 129 "/>
</clipPath>
</defs>
<g id="surface1">
<g clip-path="url(#clip1)" clip-rule="nonzero">
<path style=" stroke:none;fill-rule:nonzero;fill:rgb(98.429871%,79.219055%,24.708557%);fill-opacity:1;" d="M 245.152344 193.820312 C 243.613281 193.820312 241.839844 199.882812 241.839844 207.355469 C 241.839844 214.832031 243.730469 220.890625 245.152344 220.890625 C 246.847656 220.890625 249.003906 214.832031 249.003906 207.355469 C 249.003906 199.882812 246.847656 193.820312 245.152344 193.820312 Z M 272.042969 189.714844 C 270.636719 190.339844 271.484375 196.597656 274.53125 203.425781 C 277.582031 210.253906 281.777344 215.019531 283.078125 214.445312 C 284.625 213.757812 284.128906 207.347656 281.078125 200.515625 C 278.03125 193.6875 273.589844 189.027344 272.042969 189.714844 Z M 307.59375 181.25 C 302.023438 176.25 296.066406 173.796875 294.933594 175.054688 C 293.902344 176.195312 297.230469 181.566406 302.796875 186.566406 C 308.367188 191.566406 314.144531 194.21875 315.097656 193.167969 C 316.230469 191.910156 313.160156 186.253906 307.59375 181.25 Z M 323.960938 152.894531 C 316.835938 150.582031 310.390625 150.757812 309.867188 152.367188 C 309.390625 153.828125 314.621094 157.386719 321.746094 159.695312 C 328.871094 162.003906 335.230469 162.082031 335.671875 160.730469 C 336.195312 159.125 331.082031 155.203125 323.960938 152.894531 Z M 327.351562 120.34375 C 319.898438 121.125 314.085938 123.898438 314.261719 125.582031 C 314.425781 127.113281 320.648438 128.238281 328.101562 127.457031 C 335.550781 126.671875 341.394531 124.164062 341.246094 122.753906 C 341.066406 121.070312 334.804688 119.5625 327.351562 120.34375 Z M 320.765625 95.421875 C 327.253906 91.6875 331.566406 87.019531 330.855469 85.792969 C 330.007812 84.328125 323.667969 85.492188 317.183594 89.230469 C 310.695312 92.96875 306.511719 97.863281 307.359375 99.328125 C 308.132812 100.660156 314.277344 99.160156 320.765625 95.421875 Z M 301.007812 69.136719 C 305.410156 63.089844 307.449219 57.078125 306.296875 56.246094 C 304.929688 55.25 299.613281 58.886719 295.207031 64.9375 C 290.804688 70.984375 288.980469 77.152344 290.351562 78.144531 C 291.601562 79.050781 296.605469 75.1875 301.007812 69.136719 Z M 266.179688 65.695312 C 267.6875 66.015625 270.683594 60.457031 272.242188 53.144531 C 273.800781 45.832031 273.210938 39.511719 271.820312 39.21875 C 270.164062 38.867188 266.789062 44.347656 265.230469 51.65625 C 263.675781 58.96875 264.523438 65.34375 266.179688 65.695312 Z M 239.023438 64.136719 C 240.53125 63.816406 241 57.519531 239.445312 50.207031 C 237.886719 42.894531 234.773438 37.359375 233.382812 37.65625 C 231.726562 38.007812 230.878906 44.382812 232.433594 51.695312 C 233.992188 59.007812 237.363281 64.488281 239.023438 64.136719 Z M 213.578125 73.730469 C 214.824219 72.824219 212.6875 66.882812 208.285156 60.835938 C 203.882812 54.789062 198.78125 50.996094 197.628906 51.828125 C 196.261719 52.820312 198.082031 58.992188 202.488281 65.039062 C 206.890625 71.085938 212.207031 74.722656 213.578125 73.730469 Z M 180.566406 89.382812 C 187.054688 93.121094 193.394531 94.285156 194.242188 92.820312 C 195.011719 91.488281 190.640625 86.925781 184.152344 83.1875 C 177.664062 79.453125 171.457031 78.054688 170.746094 79.285156 C 169.898438 80.75 174.082031 85.644531 180.566406 89.382812 Z M 184.359375 118.109375 C 184.523438 116.578125 178.667969 114.1875 171.214844 113.40625 C 163.765625 112.625 157.527344 113.867188 157.378906 115.28125 C 157.203125 116.960938 163.015625 119.734375 170.46875 120.519531 C 177.917969 121.300781 184.183594 119.789062 184.359375 118.109375 Z M 185.644531 145.222656 C 185.164062 143.757812 178.84375 143.949219 171.71875 146.257812 C 164.589844 148.566406 159.402344 152.238281 159.839844 153.585938 C 160.363281 155.195312 166.804688 155.371094 173.933594 153.058594 C 181.058594 150.75 186.164062 146.828125 185.644531 145.222656 Z M 185.566406 176.066406 C 180 181.070312 176.75 186.527344 177.703125 187.582031 C 178.839844 188.839844 184.796875 186.382812 190.363281 181.382812 C 195.929688 176.382812 199 170.726562 197.863281 169.46875 C 196.832031 168.324219 191.136719 171.066406 185.566406 176.066406 Z M 218.917969 186.660156 C 217.507812 186.035156 213.417969 190.851562 210.371094 197.679688 C 207.324219 204.507812 206.582031 210.8125 207.882812 211.390625 C 209.425781 212.078125 213.871094 207.417969 216.917969 200.589844 C 219.964844 193.761719 220.460938 187.347656 218.917969 186.660156 Z M 302.960938 129.269531 C 302.960938 158.832031 278.941406 182.796875 249.3125 182.796875 C 219.683594 182.796875 195.664062 158.832031 195.664062 129.269531 C 195.664062 99.703125 219.683594 75.738281 249.3125 75.738281 C 278.941406 75.738281 302.960938 99.703125 302.960938 129.269531 "/>
</g>
<path style=" stroke:none;fill-rule:nonzero;fill:rgb(83.918762%,34.509277%,20.388794%);fill-opacity:1;" d="M 220.542969 105.695312 C 218.234375 105.695312 216.359375 107.5625 216.359375 109.863281 C 216.359375 112.167969 218.234375 114.035156 220.542969 114.035156 C 222.851562 114.035156 224.722656 112.167969 224.722656 109.863281 C 224.722656 107.5625 222.851562 105.695312 220.542969 105.695312 Z M 282.261719 109.863281 C 282.261719 112.167969 280.390625 114.035156 278.082031 114.035156 C 275.773438 114.035156 273.902344 112.167969 273.902344 109.863281 C 273.902344 107.5625 275.773438 105.695312 278.082031 105.695312 C 280.390625 105.695312 282.261719 107.5625 282.261719 109.863281 "/>
<path style=" stroke:none;fill-rule:nonzero;fill:rgb(19.999695%,20.388794%,43.139648%);fill-opacity:1;" d="M 281.753906 112.144531 C 281.125 111.578125 280.152344 111.632812 279.585938 112.257812 C 278.808594 113.125 277.601562 113.453125 276.65625 113.0625 C 275.429688 112.558594 274.832031 111.011719 275.320312 109.613281 C 275.601562 108.816406 275.175781 107.941406 274.375 107.664062 C 273.578125 107.386719 272.703125 107.808594 272.421875 108.605469 C 271.824219 110.324219 272.0625 112.164062 272.914062 113.613281 C 267.941406 116.6875 260.1875 120.15625 250.21875 120.441406 C 239.050781 120.757812 230.359375 116.851562 225.492188 113.960938 C 226.519531 112.464844 226.847656 110.460938 226.199219 108.605469 C 225.921875 107.808594 225.046875 107.386719 224.246094 107.664062 C 223.445312 107.941406 223.023438 108.816406 223.304688 109.613281 C 223.792969 111.011719 223.191406 112.558594 221.96875 113.0625 C 221.019531 113.453125 219.816406 113.125 219.035156 112.257812 C 218.46875 111.632812 217.5 111.578125 216.871094 112.144531 C 216.238281 112.710938 216.1875 113.679688 216.753906 114.304688 C 217.914062 115.59375 219.515625 116.292969 221.113281 116.292969 C 221.722656 116.292969 222.328125 116.183594 222.910156 115.972656 C 227.675781 118.972656 236.886719 123.519531 248.933594 123.519531 C 249.386719 123.519531 249.847656 123.515625 250.304688 123.5 C 261.429688 123.183594 269.96875 119.148438 275.230469 115.773438 C 275.316406 115.8125 275.394531 115.855469 275.480469 115.890625 C 276.132812 116.160156 276.820312 116.292969 277.511719 116.292969 C 279.105469 116.292969 280.707031 115.59375 281.867188 114.304688 C 282.433594 113.679688 282.382812 112.710938 281.753906 112.144531 Z M 253.25 102.964844 C 253.953125 103.429688 254.90625 103.234375 255.371094 102.53125 C 256.035156 101.53125 258.273438 98.9375 260.648438 98.9375 C 260.652344 98.9375 260.652344 98.9375 260.65625 98.9375 C 262.277344 98.941406 263.890625 100.148438 265.453125 102.527344 C 265.746094 102.976562 266.238281 103.21875 266.738281 103.21875 C 267.023438 103.21875 267.316406 103.136719 267.574219 102.96875 C 268.285156 102.503906 268.484375 101.554688 268.019531 100.851562 C 265.851562 97.550781 263.371094 95.875 260.644531 95.875 C 256.121094 95.875 252.941406 100.648438 252.808594 100.851562 C 252.34375 101.554688 252.542969 102.5 253.25 102.964844 Z M 228.59375 100.851562 C 228.730469 100.648438 231.910156 95.875 236.433594 95.875 C 239.160156 95.875 241.640625 97.550781 243.804688 100.851562 C 244.269531 101.554688 244.070312 102.503906 243.363281 102.96875 C 243.101562 103.136719 242.8125 103.21875 242.523438 103.21875 C 242.023438 103.21875 241.535156 102.976562 241.238281 102.527344 C 239.679688 100.148438 238.066406 98.941406 236.441406 98.9375 C 236.441406 98.9375 236.4375 98.9375 236.433594 98.9375 C 234.0625 98.9375 231.820312 101.53125 231.160156 102.53125 C 230.691406 103.234375 229.742188 103.429688 229.035156 102.964844 C 228.328125 102.5 228.132812 101.554688 228.59375 100.851562 "/>
<g clip-path="url(#clip2)" clip-rule="nonzero">
<path style=" stroke:none;fill-rule:nonzero;fill:rgb(97.648621%,99.21875%,99.609375%);fill-opacity:1;" d="M 276.664062 246.75 C 283.34375 245.242188 289.179688 240.5625 291.863281 233.71875 C 295.757812 223.773438 291.652344 212.679688 282.648438 207.511719 C 287.875 181.558594 274.652344 154.859375 250.0625 143.515625 C 251.332031 126.917969 241.738281 110.742188 225.394531 104.367188 C 208.324219 97.707031 189.410156 103.890625 179.332031 118.21875 C 177.160156 115.835938 174.425781 113.898438 171.214844 112.644531 C 160.105469 108.3125 147.578125 113.785156 143.234375 124.871094 C 142.644531 126.378906 142.238281 127.914062 142.003906 129.453125 C 125.664062 126.960938 109.195312 135.960938 102.925781 151.96875 C 99.789062 159.96875 99.722656 168.40625 102.144531 176.003906 C 80.691406 177.75 61.050781 191.363281 52.683594 212.710938 C 40.996094 242.550781 55.761719 276.195312 85.664062 287.859375 C 97.144531 292.335938 109.179688 292.921875 120.324219 290.257812 C 121.460938 304.640625 130.613281 317.824219 144.984375 323.433594 C 165.023438 331.246094 187.621094 321.375 195.457031 301.378906 C 195.960938 300.089844 196.390625 298.785156 196.75 297.480469 C 205.332031 299.972656 214.554688 295.558594 217.871094 287.09375 C 217.917969 286.976562 217.953125 286.859375 218 286.738281 C 221.316406 289.890625 225.28125 292.46875 229.808594 294.238281 C 248.5 301.527344 269.578125 292.320312 276.882812 273.667969 C 280.417969 264.644531 280.070312 255.0625 276.664062 246.75 "/>
</g>
<path style=" stroke:none;fill-rule:nonzero;fill:rgb(83.918762%,34.509277%,20.388794%);fill-opacity:1;" d="M 198.417969 228.433594 C 193.890625 228.433594 190.222656 232.09375 190.222656 236.609375 C 190.222656 241.125 193.890625 244.785156 198.417969 244.785156 C 202.941406 244.785156 206.613281 241.125 206.613281 236.609375 C 206.613281 232.09375 202.941406 228.433594 198.417969 228.433594 Z M 99.398438 236.609375 C 99.398438 241.125 95.730469 244.785156 91.203125 244.785156 C 86.679688 244.785156 83.011719 241.125 83.011719 236.609375 C 83.011719 232.09375 86.679688 228.433594 91.203125 228.433594 C 95.730469 228.433594 99.398438 232.09375 99.398438 236.609375 "/>
<g clip-path="url(#clip3)" clip-rule="nonzero">
<path style=" stroke:none;fill-rule:nonzero;fill:rgb(19.999695%,20.388794%,43.139648%);fill-opacity:1;" d="M 275.558594 163.457031 C 289.058594 158.6875 298.179688 145.542969 298.261719 130.75 C 298.265625 129.9375 297.605469 129.273438 296.789062 129.269531 C 295.976562 129.261719 295.308594 129.917969 295.304688 130.734375 C 295.230469 144.289062 286.898438 156.320312 274.570312 160.675781 C 264.640625 164.183594 253.433594 162.21875 244.871094 155.585938 C 245.234375 154.667969 245.46875 153.214844 245.460938 151.582031 C 245.449219 148.804688 244.753906 146.5625 243.910156 146.5625 C 243.066406 146.566406 242.390625 148.816406 242.402344 151.585938 C 242.324219 151.445312 242.25 151.300781 242.164062 151.15625 C 240.761719 148.761719 239.03125 147.164062 238.300781 147.589844 C 237.574219 148.015625 238.117188 150.300781 239.519531 152.695312 C 239.554688 152.757812 239.59375 152.816406 239.628906 152.875 C 237.261719 151.671875 235.085938 151.273438 234.703125 151.992188 C 234.308594 152.738281 235.980469 154.394531 238.433594 155.695312 C 238.550781 155.757812 238.667969 155.816406 238.789062 155.875 C 238.769531 155.878906 238.757812 155.882812 238.742188 155.886719 C 236.042969 156.550781 234.019531 157.753906 234.21875 158.574219 C 234.421875 159.394531 236.777344 159.515625 239.476562 158.851562 C 240.765625 158.535156 241.886719 158.089844 242.699219 157.628906 C 252.097656 165.105469 264.535156 167.347656 275.558594 163.457031 Z M 266.496094 246.3125 C 265.699219 246.125 264.902344 246.613281 264.714844 247.40625 C 264.523438 248.195312 265.015625 248.992188 265.808594 249.183594 C 279.023438 252.328125 288.878906 263.152344 290.335938 276.121094 C 291.503906 286.5625 287.046875 297.011719 278.632812 303.828125 C 277.816406 303.265625 276.457031 302.710938 274.855469 302.34375 C 272.148438 301.726562 269.796875 301.890625 269.609375 302.714844 C 269.421875 303.539062 271.460938 304.703125 274.171875 305.320312 C 274.011719 305.363281 273.855469 305.40625 273.695312 305.457031 C 271.039062 306.277344 269.085938 307.59375 269.339844 308.398438 C 269.585938 309.203125 271.945312 309.195312 274.597656 308.371094 C 274.664062 308.351562 274.730469 308.328125 274.796875 308.308594 C 273.085938 310.332031 272.203125 312.359375 272.820312 312.894531 C 273.457031 313.449219 275.453125 312.203125 277.277344 310.109375 C 277.367188 310.007812 277.453125 309.90625 277.535156 309.804688 C 277.535156 309.820312 277.535156 309.835938 277.535156 309.855469 C 277.574219 312.625 278.289062 314.867188 279.132812 314.855469 C 279.980469 314.84375 280.632812 312.585938 280.597656 309.8125 C 280.578125 308.484375 280.402344 307.296875 280.136719 306.402344 C 289.5625 298.964844 294.574219 287.386719 293.269531 275.789062 C 291.675781 261.59375 280.914062 249.746094 266.496094 246.3125 Z M 59.863281 307.28125 C 59.699219 307.246094 59.539062 307.21875 59.375 307.1875 C 62.019531 306.339844 63.953125 304.996094 63.695312 304.195312 C 63.433594 303.390625 61.078125 303.433594 58.433594 304.285156 C 56.871094 304.785156 55.566406 305.460938 54.800781 306.09375 C 45.820312 300.035156 40.460938 290.023438 40.710938 279.511719 C 41.023438 266.46875 49.886719 254.824219 62.773438 250.535156 C 63.550781 250.277344 63.96875 249.441406 63.710938 248.667969 C 63.449219 247.898438 62.613281 247.480469 61.839844 247.738281 C 47.773438 252.417969 38.097656 265.160156 37.757812 279.445312 C 37.476562 291.105469 43.484375 302.203125 53.53125 308.789062 C 53.34375 309.703125 53.269531 310.902344 53.371094 312.226562 C 53.578125 314.992188 54.429688 317.183594 55.269531 317.121094 C 56.113281 317.058594 56.628906 314.765625 56.421875 312 C 56.421875 311.980469 56.421875 311.96875 56.417969 311.949219 C 56.511719 312.042969 56.605469 312.140625 56.699219 312.234375 C 58.703125 314.15625 60.800781 315.222656 61.386719 314.617188 C 61.957031 314.027344 60.898438 312.085938 59.015625 310.21875 C 59.082031 310.234375 59.148438 310.253906 59.21875 310.265625 C 61.9375 310.851562 64.285156 310.65625 64.460938 309.832031 C 64.640625 309.007812 62.582031 307.867188 59.863281 307.28125 Z M 154.160156 228.25 C 154.90625 228.644531 155.835938 228.367188 156.238281 227.625 C 157.308594 225.644531 160.914062 220.523438 164.71875 220.523438 C 164.730469 220.523438 164.742188 220.523438 164.753906 220.523438 C 168 220.550781 170.675781 224.390625 172.34375 227.605469 C 172.621094 228.128906 173.152344 228.433594 173.707031 228.433594 C 173.949219 228.433594 174.1875 228.375 174.414062 228.257812 C 175.164062 227.871094 175.460938 226.945312 175.066406 226.195312 C 172.074219 220.429688 168.609375 217.488281 164.773438 217.460938 C 164.753906 217.460938 164.738281 217.460938 164.71875 217.460938 C 158.300781 217.460938 153.726562 225.820312 153.535156 226.175781 C 153.132812 226.921875 153.414062 227.847656 154.160156 228.25 Z M 206.035156 240.863281 C 205.378906 240.332031 204.410156 240.4375 203.882812 241.097656 C 201.789062 243.691406 198.117188 244.574219 195.339844 243.152344 C 192.074219 241.484375 190.804688 237.148438 192.5625 233.691406 C 192.945312 232.933594 192.644531 232.015625 191.890625 231.632812 C 191.132812 231.25 190.210938 231.550781 189.828125 232.304688 C 187.714844 236.460938 188.726562 241.515625 191.925781 244.457031 C 183.316406 249.917969 167.070312 257.925781 145.796875 258.015625 C 145.671875 258.019531 145.554688 258.019531 145.433594 258.019531 C 123.621094 258.019531 107.058594 249.6875 98.492188 244.175781 C 101.453125 241.199219 102.328125 236.328125 100.28125 232.304688 C 99.898438 231.550781 98.976562 231.25 98.21875 231.632812 C 97.464844 232.015625 97.164062 232.933594 97.546875 233.691406 C 99.304688 237.148438 98.035156 241.484375 94.773438 243.152344 C 91.992188 244.574219 88.320312 243.691406 86.230469 241.097656 C 85.699219 240.4375 84.734375 240.332031 84.074219 240.863281 C 83.410156 241.394531 83.308594 242.359375 83.839844 243.015625 C 85.871094 245.535156 88.863281 246.90625 91.855469 246.90625 C 93.191406 246.90625 94.519531 246.617188 95.765625 246.054688 C 104.28125 251.722656 121.90625 261.078125 145.433594 261.078125 C 145.554688 261.078125 145.683594 261.078125 145.808594 261.078125 C 168.890625 260.980469 186.253906 251.878906 194.796875 246.25 C 195.910156 246.683594 197.078125 246.90625 198.253906 246.90625 C 201.246094 246.90625 204.242188 245.535156 206.269531 243.015625 C 206.800781 242.359375 206.699219 241.394531 206.035156 240.863281 Z M 115.007812 226.175781 C 115.199219 225.820312 119.769531 217.460938 126.191406 217.460938 C 126.207031 217.460938 126.226562 217.460938 126.246094 217.460938 C 130.082031 217.488281 133.542969 220.429688 136.539062 226.195312 C 136.933594 226.945312 136.636719 227.871094 135.882812 228.257812 C 135.660156 228.375 135.417969 228.433594 135.179688 228.433594 C 134.625 228.433594 134.089844 228.128906 133.816406 227.605469 C 132.144531 224.386719 129.46875 220.546875 126.222656 220.523438 C 126.210938 220.523438 126.203125 220.523438 126.191406 220.523438 C 122.367188 220.523438 118.773438 225.644531 117.710938 227.625 C 117.308594 228.367188 116.378906 228.648438 115.632812 228.25 C 114.886719 227.847656 114.605469 226.921875 115.007812 226.175781 "/>
</g>
<path style=" stroke:none;fill-rule:nonzero;fill:rgb(19.999695%,20.388794%,43.139648%);fill-opacity:1;" d="M 151.105469 241.585938 C 151.105469 249.929688 148.457031 250.867188 145.1875 250.867188 C 141.917969 250.867188 139.273438 249.929688 139.273438 241.585938 C 139.273438 233.238281 141.917969 220.640625 145.1875 220.640625 C 148.457031 220.640625 151.105469 233.238281 151.105469 241.585938 "/>
</g>
</svg>
