<?xml version="1.0" encoding="UTF-8"?>
<svg xmlns="http://www.w3.org/2000/svg" xmlns:xlink="http://www.w3.org/1999/xlink" width="375pt" height="374.999991pt" viewBox="0 0 375 374.999991" version="1.2">
<defs>
<clipPath id="clip1">
  <path d="M 33 23.894531 L 341 23.894531 L 341 350.894531 L 33 350.894531 Z M 33 23.894531 "/>
</clipPath>
</defs>
<g id="surface1">
<g clip-path="url(#clip1)" clip-rule="nonzero">
<path style=" stroke:none;fill-rule:nonzero;fill:rgb(13.729858%,56.079102%,23.919678%);fill-opacity:1;" d="M 126.300781 330.238281 C 125.566406 329.683594 124.644531 329.128906 123.90625 328.578125 Z M 169.988281 350.523438 C 168.332031 350.339844 166.671875 350.15625 165.011719 349.972656 C 163.355469 349.785156 161.695312 349.601562 160.035156 349.234375 C 157.085938 348.679688 154.136719 348.128906 151.1875 347.574219 C 149.714844 347.203125 148.238281 346.835938 146.765625 346.28125 L 145.84375 346.097656 L 145.472656 345.914062 L 145.289062 345.914062 L 144.183594 345.546875 L 142.15625 344.808594 C 140.679688 344.253906 139.207031 343.699219 137.730469 343.148438 C 136.441406 342.59375 135.152344 341.855469 133.859375 341.117188 C 131.09375 339.644531 128.332031 337.796875 125.75 336.140625 L 123.90625 334.847656 C 121.140625 333.003906 118.375 330.976562 115.609375 328.945312 C 112.847656 326.917969 110.632812 324.703125 108.238281 322.675781 C 105.839844 320.648438 103.078125 318.25 100.496094 316.035156 C 97.914062 313.824219 95.519531 311.425781 92.9375 309.027344 C 90.355469 306.628906 88.144531 304.230469 85.5625 301.835938 C 82.984375 299.4375 80.585938 296.671875 78.191406 294.089844 L 78.375 294.273438 C 77.269531 292.980469 76.164062 291.691406 74.871094 290.214844 C 73.582031 288.738281 72.84375 287.632812 71.738281 286.34375 L 65.472656 278.226562 C 63.445312 275.460938 61.230469 272.878906 59.203125 270.113281 C 57.175781 267.34375 55.148438 264.394531 53.304688 261.628906 C 49.433594 255.910156 46.117188 249.824219 43.351562 243.367188 C 41.875 240.234375 40.769531 236.914062 39.664062 233.59375 C 39.113281 232.117188 38.558594 230.457031 38.191406 228.984375 C 37.820312 227.507812 37.269531 225.664062 36.714844 224.003906 C 36.164062 222.34375 35.976562 220.5 35.792969 218.65625 C 35.609375 216.8125 35.425781 215.335938 35.242188 213.492188 C 34.871094 209.988281 34.6875 206.667969 34.503906 203.164062 C 34.320312 199.660156 34.136719 196.707031 33.949219 193.386719 C 33.765625 190.066406 33.765625 186.75 33.765625 183.613281 C 33.765625 180.476562 34.320312 176.789062 34.320312 173.285156 C 34.320312 169.78125 34.6875 166.460938 35.054688 163.140625 C 35.976562 156.316406 36.714844 149.675781 37.820312 142.851562 C 38.375 139.53125 39.113281 136.214844 40.035156 133.078125 C 40.957031 129.941406 42.0625 126.808594 43.351562 123.671875 C 44.640625 120.535156 45.746094 117.769531 46.855469 114.820312 C 47.960938 111.867188 49.617188 108.546875 51.09375 105.414062 C 52.566406 102.277344 54.042969 99.511719 55.703125 96.558594 C 57.359375 93.792969 59.203125 91.210938 61.230469 88.628906 C 63.261719 85.863281 65.472656 83.464844 67.683594 80.882812 C 69.894531 78.300781 72.292969 76.089844 74.503906 73.507812 C 76.714844 70.925781 78.929688 68.527344 81.324219 66.128906 C 83.90625 63.730469 86.671875 61.703125 89.433594 59.859375 C 92.386719 58.015625 95.335938 56.355469 98.46875 54.878906 C 101.601562 53.402344 104.550781 51.925781 107.683594 50.453125 C 110.816406 48.976562 113.953125 47.683594 117.085938 46.394531 C 120.21875 45.101562 123.167969 43.8125 126.300781 42.519531 C 129.4375 41.230469 132.570312 39.9375 135.886719 38.648438 C 139.207031 37.355469 142.523438 35.882812 145.65625 34.589844 C 148.792969 33.300781 151.925781 32.007812 155.058594 30.902344 C 158.191406 29.796875 161.695312 28.320312 165.011719 27.214844 C 168.332031 26.105469 171.832031 25.183594 175.335938 24.632812 C 176.996094 24.261719 178.652344 24.078125 180.3125 24.078125 C 182.15625 23.894531 183.816406 23.894531 185.660156 23.894531 C 189.160156 23.894531 192.664062 24.078125 196.164062 24.261719 C 199.667969 24.445312 202.984375 25 206.488281 25.738281 C 209.992188 26.476562 213.308594 27.214844 216.625 28.136719 C 219.945312 29.058594 223.261719 30.164062 226.398438 31.457031 C 232.847656 33.851562 239.117188 36.621094 245.199219 39.9375 C 251.28125 43.257812 256.996094 47.132812 262.527344 51.375 C 265.292969 53.585938 267.871094 55.800781 270.453125 58.015625 C 273.035156 60.226562 275.796875 62.625 278.5625 65.023438 C 281.328125 67.417969 283.726562 69.449219 286.304688 71.660156 C 288.886719 73.691406 291.28125 75.902344 293.496094 78.300781 C 294.785156 79.777344 295.890625 81.066406 297.179688 82.542969 C 298.472656 84.019531 299.023438 85.125 300.128906 86.417969 C 302.160156 89.183594 304.1875 91.949219 306.214844 94.714844 C 310.269531 100.0625 314.140625 105.78125 317.457031 111.5 C 319.117188 114.632812 320.59375 117.585938 322.25 120.722656 C 323.910156 123.855469 325.199219 126.808594 326.675781 129.757812 C 329.625 135.660156 332.390625 141.746094 334.417969 147.832031 C 334.96875 149.308594 335.339844 150.96875 335.707031 152.445312 C 336.074219 153.917969 336.445312 155.761719 336.628906 157.421875 C 337.183594 160.742188 337.734375 164.0625 338.105469 167.382812 C 338.839844 174.207031 339.394531 180.847656 339.945312 187.671875 C 340.5 194.496094 340.867188 201.6875 340.683594 208.511719 C 340.683594 211.832031 340.316406 215.152344 339.945312 218.46875 C 339.578125 221.976562 339.027344 225.480469 338.472656 228.796875 C 337.917969 232.117188 337.183594 235.621094 336.261719 238.941406 C 335.339844 242.261719 334.417969 245.582031 333.3125 248.71875 C 332.207031 251.851562 331.097656 255.171875 329.625 258.308594 C 328.148438 261.445312 326.859375 264.578125 325.199219 267.53125 C 322.066406 273.617188 318.378906 279.519531 314.324219 284.867188 C 312.113281 287.632812 309.902344 290.214844 307.503906 292.796875 C 305.109375 295.195312 302.710938 297.59375 300.128906 299.621094 C 298.839844 300.726562 297.550781 301.648438 296.257812 302.757812 L 292.390625 305.707031 C 289.808594 307.734375 287.226562 309.765625 284.460938 311.792969 C 281.695312 313.824219 278.933594 315.851562 275.984375 317.878906 C 273.035156 319.910156 270.085938 321.753906 266.949219 323.597656 C 263.816406 325.441406 261.050781 326.917969 257.917969 328.394531 C 254.785156 329.867188 251.835938 331.34375 248.886719 332.632812 C 245.9375 333.925781 242.25 335.402344 238.929688 336.507812 C 235.796875 337.613281 232.847656 338.722656 229.53125 339.644531 L 227.871094 340.195312 L 227.316406 340.382812 C 225.660156 340.933594 224 341.488281 222.339844 342.039062 C 216.074219 344.253906 209.621094 345.359375 203.171875 347.019531 C 200.773438 347.574219 198.378906 348.128906 195.980469 348.679688 C 193.769531 349.050781 191.558594 349.417969 189.160156 349.601562 C 185.472656 349.972656 181.601562 350.15625 177.917969 350.15625 C 175.519531 350.894531 172.753906 350.710938 169.988281 350.523438 Z M 169.988281 350.523438 "/>
</g>
</g>
</svg>
